<svg width="57" height="37" viewBox="0 0 57 37" fill="none" xmlns="http://www.w3.org/2000/svg">
<path fill-rule="evenodd" clip-rule="evenodd" d="M51.0654 4.14422C54.0264 4.14422 56.4355 6.55325 56.4355 9.51427C56.4355 12.0805 54.6258 14.2303 52.2159 14.7586C51.6445 19.4746 50.4342 25.4246 47.8741 29.4724V34.4304C47.8741 35.3484 47.13 36.0928 46.2121 36.0928H10.2234C9.30545 36.0928 8.56142 35.3484 8.56142 34.4304V29.4724C6.00126 25.4246 4.79094 19.4742 4.21957 14.7586C1.80968 14.2307 0 12.0805 0 9.51427C0 6.55325 2.40903 4.14422 5.37005 4.14422C8.33107 4.14422 10.7401 6.55325 10.7401 9.51427C10.7401 10.9377 10.1821 12.2329 9.27445 13.1948C10.8886 15.0006 13.2327 16.1403 15.8393 16.1403C20.0589 16.1403 23.593 13.1573 24.4481 9.19005C23.4612 8.21568 22.8477 6.86326 22.8477 5.37005C22.8477 2.40903 25.2567 0 28.2177 0C31.1788 0 33.5878 2.40903 33.5878 5.37005C33.5878 6.86326 32.9747 8.21568 31.9874 9.19005C32.8425 13.1573 36.3766 16.1403 40.5961 16.1403C43.2028 16.1403 45.5468 15.0006 47.161 13.1948C46.2534 12.2329 45.6958 10.9377 45.6958 9.51427C45.6958 6.55325 48.1044 4.14422 51.0654 4.14422ZM51.0654 7.46821C49.9373 7.46821 49.0198 8.38618 49.0198 9.51427C49.0198 10.6424 49.9373 11.5599 51.0654 11.5599C52.1935 11.5599 53.1115 10.6424 53.1115 9.51427C53.1115 8.38618 52.1935 7.46821 51.0654 7.46821ZM26.1717 5.37005C26.1717 4.24196 27.0896 3.32399 28.2177 3.32399C29.3458 3.32399 30.2634 4.24196 30.2634 5.37005C30.2634 6.49814 29.3458 7.41568 28.2177 7.41568C27.0896 7.41568 26.1717 6.49814 26.1717 5.37005ZM5.37005 7.46821C4.24196 7.46821 3.32399 8.38618 3.32399 9.51427C3.32399 10.6424 4.24196 11.5599 5.37005 11.5599C6.49814 11.5599 7.41568 10.6424 7.41568 9.51427C7.41568 8.38618 6.49814 7.46821 5.37005 7.46821ZM11.8854 32.7684V30.6401H44.5501V32.7684H11.8854ZM11.1371 27.3157H45.2988C47.0508 24.3448 48.0553 20.1764 48.631 16.4146C46.4898 18.3116 43.6747 19.4643 40.5961 19.4643C35.0711 19.4643 30.3977 15.7515 28.9376 10.6902C28.7021 10.722 28.4619 10.7397 28.2177 10.7397C27.9736 10.7397 27.7333 10.722 27.4978 10.6902C26.0378 15.7515 21.3644 19.4643 15.8393 19.4643C12.7616 19.4643 9.94829 18.3125 7.80707 16.4171C8.38317 20.1795 9.38768 24.3482 11.1371 27.3157Z" fill="url(#paint0_linear_0_1055)"/>
<defs>
<linearGradient id="paint0_linear_0_1055" x1="-5.64954" y1="16.3008" x2="12.7605" y2="48.5945" gradientUnits="userSpaceOnUse">
<stop stop-color="#F8E6E2"/>
<stop offset="1" stop-color="#B0776B"/>
</linearGradient>
</defs>
</svg>
