<svg width="57" height="51" viewBox="0 0 57 51" fill="none" xmlns="http://www.w3.org/2000/svg">
<path fill-rule="evenodd" clip-rule="evenodd" d="M10.0014 39.6304H18.99L26.7527 49.7632C27.4103 50.6217 28.7056 50.6213 29.3627 49.7632L37.1254 39.6304H46.1141C51.6288 39.6304 56.1154 35.1438 56.1154 29.6292V10.0014C56.1154 4.4866 51.6288 0 46.1141 0H10.0014C4.4866 0 0 4.4866 0 10.0014V29.6292C0 35.1439 4.4866 39.6304 10.0014 39.6304ZM3.28801 10.0014C3.28801 6.29961 6.29961 3.28801 10.0014 3.28801H46.1141C49.8158 3.28801 52.8274 6.29961 52.8274 10.0014V29.6292C52.8274 33.3309 49.8158 36.3424 46.1141 36.3424H36.3139C35.8024 36.3424 35.3199 36.5806 35.0089 36.9866L28.0577 46.0601L21.1065 36.9866C20.7955 36.5806 20.313 36.3424 19.8015 36.3424H10.0014C6.29961 36.3424 3.28801 33.3309 3.28801 29.6292V10.0014ZM26.8958 32.6085C27.5381 33.2506 28.5789 33.2505 29.2208 32.6085L39.5739 22.2555C42.6624 19.1669 42.6624 14.1416 39.5739 11.0531C38.0776 9.55694 36.0882 8.73296 33.9722 8.73307C31.8561 8.73318 29.8669 9.55738 28.3708 11.0538L28.0582 11.3666L27.7443 11.0527C24.6559 7.96423 19.6305 7.96412 16.5416 11.053C13.4459 14.1486 13.4455 19.1596 16.5418 22.2556L26.8958 32.6085ZM22.143 12.0204C23.3806 12.0204 24.5441 12.5023 25.4193 13.3775L26.8959 14.854C27.5377 15.4956 28.5791 15.4959 29.2211 14.8539L30.6961 13.3785C31.5712 12.5032 32.7348 12.0211 33.9725 12.0211C38.0695 12.0208 40.1698 17.0099 37.2491 19.9306L28.0585 29.1212L18.8669 19.9305C15.9767 17.0408 17.9974 12.0204 22.143 12.0204Z" fill="url(#paint0_linear_0_1050)"/>
<defs>
<linearGradient id="paint0_linear_0_1050" x1="-5.6175" y1="22.7655" x2="23.5387" y2="59.1785" gradientUnits="userSpaceOnUse">
<stop stop-color="#F8E6E2"/>
<stop offset="1" stop-color="#B0776B"/>
</linearGradient>
</defs>
</svg>
