<svg width="58" height="54" viewBox="0 0 58 54" fill="none" xmlns="http://www.w3.org/2000/svg">
<path fill-rule="evenodd" clip-rule="evenodd" d="M57.6 15.1875C57.6 6.81311 50.7869 0 42.4125 0C34.0381 0 27.225 6.81311 27.225 15.1875C27.225 15.7579 27.2577 16.3207 27.3193 16.875H20.3625C17.9926 16.875 15.7168 17.3554 13.584 18.3044C11.8531 17.3667 9.94174 16.875 8.00235 16.875H2.83365L5.7231 25.5435C5.43443 26.0454 5.18558 26.5265 4.96991 27H0V40.5H4.96058C6.27896 43.4977 8.46979 46.0839 11.2232 47.8664C12.7194 48.8349 13.6125 50.4754 13.6125 52.2546V54H23.7375V50.625H33.8625V54H43.9875V52.3125C43.9875 49.4883 44.9867 46.7412 46.8011 44.577C50.7492 39.8681 51.6534 33.6222 49.8571 28.4211C54.475 25.8129 57.6 20.8586 57.6 15.1875ZM44.2149 42.4087C42.2553 44.746 41.0384 47.6143 40.7057 50.625H37.2375V46.8804C37.2253 46.882 33.9806 47.25 33.8625 47.25H20.3625V50.625H16.8334C16.3969 48.3454 15.0533 46.3254 13.0573 45.0333C9.07912 42.4579 7.87009 38.8154 7.44718 37.5413C7.37929 37.3368 7.33165 37.1932 7.29607 37.125H3.375V30.375H7.29596L7.695 29.2528C8.1432 27.9919 8.80724 26.942 9.19571 26.3279L9.19579 26.3277C9.28897 26.1804 9.3663 26.0582 9.42097 25.9641L7.51635 20.25H8.00235C10.569 20.25 12.3112 21.4348 13.0709 21.9515C13.2181 22.0517 13.3285 22.1267 13.4008 22.1632C13.487 22.1289 13.6201 22.0578 13.7988 21.9624C14.7527 21.453 17.0057 20.25 20.3625 20.25H28.0937C30.1833 26.1427 35.8125 30.375 42.4125 30.375C43.9155 30.375 45.3679 30.1545 46.7399 29.7459C48.0788 33.8708 47.2857 38.746 44.2149 42.4087ZM30.6 15.1875C30.6 21.7009 35.8991 27 42.4125 27C48.9259 27 54.225 21.7009 54.225 15.1875C54.225 8.67409 48.9259 3.375 42.4125 3.375C35.8991 3.375 30.6 8.67409 30.6 15.1875ZM42.4125 13.5C41.482 13.5 40.725 12.743 40.725 11.8125C40.725 10.882 41.482 10.125 42.4125 10.125C43.0926 10.125 43.7032 10.5298 43.968 11.1562L47.0765 9.84139C46.282 7.96343 44.4514 6.75 42.4125 6.75C39.621 6.75 37.35 9.02104 37.35 11.8125C37.35 14.604 39.621 16.875 42.4125 16.875C43.343 16.875 44.1 17.632 44.1 18.5625C44.1 19.493 43.343 20.25 42.4125 20.25C41.7324 20.25 41.1218 19.8452 40.857 19.2188L37.7485 20.5336C38.5429 22.4116 40.3736 23.625 42.4125 23.625C45.204 23.625 47.475 21.354 47.475 18.5625C47.475 15.771 45.204 13.5 42.4125 13.5ZM16.9875 27H13.6125V30.375H16.9875V27Z" fill="url(#paint0_linear_0_1028)"/>
<defs>
<linearGradient id="paint0_linear_0_1028" x1="-5.76611" y1="24.3883" x2="25.7341" y2="62.0826" gradientUnits="userSpaceOnUse">
<stop stop-color="#F8E6E2"/>
<stop offset="1" stop-color="#B0776B"/>
</linearGradient>
</defs>
</svg>
