<svg width="54" height="50" viewBox="0 0 54 50" fill="none" xmlns="http://www.w3.org/2000/svg">
<path fill-rule="evenodd" clip-rule="evenodd" d="M40.5049 0.232852C40.9931 -0.0660191 41.6047 -0.0780414 42.1042 0.201741C42.6035 0.481629 42.9128 1.00945 42.9128 1.58188V43.8143C42.9128 44.3829 42.6075 44.9079 42.1132 45.1892C41.8706 45.3273 41.6007 45.3962 41.3309 45.3962C41.0513 45.3962 40.7717 45.3221 40.5228 45.1742L23.4037 35.0007L15.5337 48.6321C15.241 49.1391 14.7094 49.4233 14.1624 49.4233C13.9002 49.4233 13.6345 49.3581 13.3898 49.2208L6.41032 45.3052C6.04153 45.0983 5.77093 44.7522 5.65893 44.3444C5.54704 43.9365 5.60303 43.5009 5.81448 43.1346L11.3259 33.5885C10.1569 32.9637 9.19528 32.0198 8.55831 30.881H4.58609C2.05729 30.881 0 28.8237 0 26.2949V19.1014C0 16.5726 2.05729 14.5153 4.58609 14.5153H8.56622C8.87986 13.9627 9.27343 13.4555 9.7403 13.0162C10.9946 11.8354 12.6286 11.2369 14.3462 11.3277H22.3886L40.5049 0.232852ZM3.16377 26.2949C3.16377 27.0792 3.8018 27.7173 4.58609 27.7173H7.71337C7.71323 27.7069 7.71287 27.6965 7.71251 27.6862C7.71204 27.673 7.71158 27.6598 7.71158 27.6465V17.7498C7.71158 17.7371 7.71204 17.7245 7.71249 17.7119C7.71288 17.701 7.71328 17.69 7.71337 17.679H4.58609C3.8018 17.679 3.16377 18.3171 3.16377 19.1014V26.2949ZM10.8753 17.7498C10.8753 16.8237 11.2519 15.938 11.9085 15.32C12.5335 14.7319 13.3489 14.4361 14.2057 14.4886C14.2377 14.4905 21.2528 14.4914 21.2528 14.4914V31.2404H14.3535C12.3994 31.1001 10.8753 29.5295 10.8753 27.6464V17.7498ZM9.35505 43.3296L13.5751 45.6971L20.0949 34.4043H14.4953C14.4716 34.4588 14.4453 34.5129 14.4149 34.5657L9.35505 43.3296ZM39.7491 41.0341L24.4166 31.9223V13.7957L39.7491 4.40565V41.0341ZM47.5705 15.921C47.2616 16.2298 46.8567 16.3843 46.4519 16.3843C46.0471 16.3843 45.6423 16.2299 45.3334 15.921C44.7157 15.3033 44.7157 14.3016 45.3334 13.6839L48.5245 10.4928C49.1423 9.87507 50.1438 9.87507 50.7616 10.4928C51.3794 11.1106 51.3794 12.1123 50.7616 12.7299L47.5705 15.921ZM45.3334 29.4754C45.9512 28.8577 46.9528 28.8577 47.5705 29.4754L50.7616 32.6664C51.3794 33.2842 51.3794 34.2859 50.7616 34.9035C50.4527 35.2123 50.0479 35.3668 49.643 35.3668C49.2382 35.3668 48.8334 35.2124 48.5245 34.9035L45.3334 31.7125C44.7157 31.0947 44.7157 30.093 45.3334 29.4754ZM52.4131 21.1163H47.9002C47.0266 21.1163 46.3183 21.8245 46.3183 22.6981C46.3183 23.5718 47.0266 24.28 47.9002 24.28H52.4131C53.2867 24.28 53.995 23.5718 53.995 22.6981C53.995 21.8245 53.2867 21.1163 52.4131 21.1163Z" fill="url(#paint0_linear_0_1034)"/>
<defs>
<linearGradient id="paint0_linear_0_1034" x1="-5.40523" y1="22.3213" x2="23.2951" y2="57.4969" gradientUnits="userSpaceOnUse">
<stop stop-color="#F8E6E2"/>
<stop offset="1" stop-color="#B0776B"/>
</linearGradient>
</defs>
</svg>
