<svg width="165" height="34" viewBox="0 0 165 34" fill="none" xmlns="http://www.w3.org/2000/svg">
<g clip-path="url(#clip0_0_1834)">
<g filter="url(#filter0_d_0_1834)">
<path d="M30.943 16.6807L30.686 16.9376C29.374 18.2497 26.8816 18.5516 25.2939 17.591L25.1858 17.5256L25.0699 17.4756C24.9276 17.4142 24.5709 17.2208 24.0316 16.8591C23.0737 16.2166 21.9981 15.3333 20.8367 14.1718C19.6752 13.0103 18.7918 11.9347 18.1494 10.9769C17.7876 10.4376 17.5942 10.0809 17.5329 9.93856L17.4773 9.80975L17.4029 9.69086C16.4375 8.14864 16.7488 5.6445 18.0724 4.32084L18.3422 4.05106C18.6414 3.7519 18.999 3.77226 19.2592 4.10112L20.7279 5.95801C21.0901 6.41587 21.0432 7.21298 20.6253 7.63098C19.7361 8.53051 19.7405 9.97962 20.6353 10.8744L24.1342 14.3733C25.0311 15.2702 26.4902 15.2707 27.3888 14.3722L27.4606 14.3003C27.8686 13.8923 28.6333 13.8546 29.081 14.2214L30.8919 15.705C31.23 15.982 31.2498 16.3739 30.943 16.6807Z" fill="url(#paint0_linear_0_1834)"/>
</g>
<path d="M43.8867 9.09863C43.8867 7.9502 44.2695 6.98633 45.042 6.20703C45.8076 5.42773 46.7578 5.03809 47.8789 5.03809C49 5.03809 49.9434 5.42773 50.7158 6.20703C51.4814 6.98633 51.8711 7.9502 51.8711 9.09863C51.8711 10.2471 51.4814 11.2109 50.7158 11.9902C49.9434 12.7695 49 13.1592 47.8789 13.1592C46.7578 13.1592 45.8076 12.7695 45.042 11.9902C44.2695 11.2109 43.8867 10.2471 43.8867 9.09863ZM52.917 9.09863C52.917 7.7041 52.4248 6.51465 51.4473 5.53027C50.4629 4.55273 49.2734 4.06055 47.8789 4.06055C46.4775 4.06055 45.2881 4.55273 44.3105 5.53027C43.3262 6.51465 42.8408 7.7041 42.8408 9.09863C42.8408 10.5 43.3262 11.6895 44.3105 12.667C45.2881 13.6514 46.4775 14.1367 47.8789 14.1367C49.2734 14.1367 50.4629 13.6514 51.4473 12.667C52.4248 11.6895 52.917 10.5 52.917 9.09863ZM61.6415 10.7803C61.6415 9.85059 61.327 9.05762 60.6981 8.40137C60.0692 7.74512 59.3104 7.41699 58.4217 7.41699C58.121 7.41699 57.8339 7.47168 57.5604 7.56738C57.287 7.66309 57.0614 7.77246 56.8905 7.88867C56.7128 8.01172 56.5555 8.1416 56.412 8.29199C56.2684 8.44238 56.1727 8.54492 56.1317 8.60645C56.0907 8.66797 56.0565 8.71582 56.0428 8.75C56.077 7.80664 56.3231 7.06152 56.7743 6.51465C57.2255 5.96777 57.827 5.6123 58.5653 5.46191C59.9598 5.18848 60.8485 4.88086 61.2245 4.55273L60.7323 3.78027L60.5272 3.90332C60.3905 3.99219 60.1307 4.10156 59.7479 4.23145C59.3583 4.36816 58.9139 4.4707 58.4217 4.55273C56.1385 4.96289 54.9969 6.71289 54.9969 9.80273C54.9969 11.1836 55.3046 12.2568 55.9335 13.0088C56.5555 13.7607 57.3622 14.1367 58.3534 14.1367C59.2694 14.1367 60.0419 13.8154 60.6844 13.166C61.3202 12.5234 61.6415 11.7236 61.6415 10.7803ZM56.0428 10.7803C56.0428 10.0898 56.2684 9.50879 56.7196 9.03711C57.1708 8.57227 57.7176 8.33301 58.3534 8.33301C58.9823 8.33301 59.5292 8.57227 59.9803 9.03711C60.4315 9.50879 60.6639 10.0898 60.6639 10.7803C60.6639 11.4775 60.4315 12.0586 59.9803 12.5234C59.5292 12.9951 58.9823 13.2275 58.3534 13.2275C57.7176 13.2275 57.1708 12.9951 56.7196 12.5234C56.2684 12.0586 56.0428 11.4775 56.0428 10.7803ZM64.9109 10.6436C64.9109 9.95312 65.1501 9.35156 65.6423 8.83203C66.1345 8.3125 66.6814 8.05273 67.2898 8.05273C67.864 8.05273 68.3835 8.30566 68.8415 8.81152C69.2995 9.31738 69.532 9.92578 69.532 10.6436C69.532 11.3613 69.2995 11.9697 68.8415 12.4756C68.3835 12.9814 67.864 13.2275 67.2898 13.2275C66.6814 13.2275 66.1345 12.9746 65.6423 12.4551C65.1501 11.9355 64.9109 11.334 64.9109 10.6436ZM64.9109 12.9473L65.0066 13.0771C65.0749 13.1592 65.1706 13.2617 65.3074 13.3779C65.4441 13.4941 65.6013 13.6104 65.7859 13.7197C65.9636 13.8359 66.1892 13.9316 66.4558 14.0137C66.7224 14.0957 67.0027 14.1367 67.2898 14.1367C68.1511 14.1367 68.9031 13.7949 69.5456 13.1113C70.1882 12.4277 70.5095 11.6006 70.5095 10.6436C70.5095 9.68652 70.1814 8.85938 69.5388 8.17578C68.8962 7.48535 68.1443 7.14355 67.2898 7.14355C67.0027 7.14355 66.7224 7.18457 66.449 7.2666C66.1755 7.34863 65.9568 7.44434 65.7859 7.55371C65.6081 7.66309 65.4509 7.78613 65.3005 7.92285C65.1501 8.05957 65.0544 8.15527 65.0066 8.20996C64.9587 8.26465 64.9245 8.3125 64.9109 8.33984V7.28711H63.9333V16.9463H64.9109V12.9473ZM74.1959 10.1514C73.5602 10.2607 73.0748 10.4863 72.7398 10.8281C72.398 11.1699 72.234 11.6211 72.234 12.1816C72.234 12.6943 72.4596 13.1455 72.9176 13.542C73.3756 13.9385 73.943 14.1367 74.6129 14.1367C74.8795 14.1367 75.1393 14.1025 75.3922 14.0273C75.6451 13.959 75.8502 13.877 76.0074 13.7812C76.1578 13.6855 76.3014 13.583 76.4381 13.46C76.5748 13.3369 76.6568 13.2549 76.6979 13.207C76.7389 13.1592 76.7662 13.1182 76.7867 13.0908V14H77.7643V9.72754C77.7643 8.99609 77.5113 8.38086 77.0055 7.88184C76.4996 7.38965 75.8707 7.13672 75.1051 7.13672C74.8043 7.13672 74.5035 7.18457 74.2164 7.27344C73.9293 7.3623 73.6969 7.46484 73.5191 7.57422C73.3414 7.69043 73.1705 7.82031 73.0064 7.96387C72.8424 8.10742 72.7398 8.20996 72.692 8.26465C72.6441 8.31934 72.61 8.36719 72.5826 8.40137L73.2115 9.03027L73.4234 8.79102C73.5602 8.62695 73.7857 8.46289 74.1002 8.29883C74.4146 8.13477 74.7496 8.05273 75.1051 8.05273C75.5973 8.05273 76.0006 8.20996 76.315 8.51758C76.6295 8.83203 76.7867 9.23535 76.7867 9.72754L74.1959 10.1514ZM74.6129 13.2275C74.1754 13.2275 73.8268 13.1318 73.5807 12.9336C73.3346 12.7354 73.2115 12.4824 73.2115 12.1816C73.2115 11.5527 73.6354 11.1562 74.4762 10.9922L76.7867 10.5684V10.9922C76.7867 11.6553 76.5816 12.1953 76.1715 12.6055C75.7613 13.0225 75.2418 13.2275 74.6129 13.2275ZM79.6255 8.18945H82.0044V14H82.9819V8.18945H85.3608V7.28027H79.6255V8.18945ZM92.0618 14H93.0462V7.28027H92.0618V10.1514H88.2132V7.28027H87.2357V14H88.2132V11.0605H92.0618V14ZM103.104 7.28027H102.119V14H103.104V7.28027ZM96.7326 13.0908V10.4316H98.4143C98.8586 10.4316 99.2141 10.5547 99.4807 10.8008C99.7473 11.0469 99.884 11.3682 99.884 11.7578C99.884 12.1543 99.7473 12.4756 99.4807 12.7217C99.2141 12.9678 98.8654 13.0908 98.4279 13.0908H96.7326ZM100.862 11.7646C100.862 11.0947 100.643 10.5479 100.205 10.1377C99.7678 9.72754 99.1662 9.52246 98.4143 9.52246H96.7326V7.28027H95.7551V14H98.4279C99.1799 14 99.7746 13.7949 100.212 13.3848C100.643 12.9746 100.862 12.4346 100.862 11.7646ZM108.745 5.38672C108.39 5.38672 108.109 5.28418 107.918 5.0791C107.72 4.87402 107.624 4.58008 107.624 4.19727H106.852C106.852 4.75781 107.023 5.21582 107.378 5.56445C107.727 5.91992 108.185 6.09082 108.745 6.09082C109.306 6.09082 109.757 5.91992 110.106 5.56445C110.454 5.21582 110.632 4.75781 110.632 4.19727H109.866C109.866 4.58008 109.764 4.87402 109.572 5.0791C109.374 5.28418 109.101 5.38672 108.745 5.38672ZM110.844 7.28027L106.783 12.3184V7.28027H105.806V14H106.64L110.7 8.96191V14H111.685V7.28027H110.844ZM121.587 9.03027C121.587 8.51758 121.368 8.07324 120.944 7.69727C120.513 7.32812 119.96 7.13672 119.276 7.13672C118.811 7.13672 118.381 7.23242 117.971 7.41016C117.56 7.59473 117.294 7.73828 117.171 7.84766C117.048 7.95703 116.952 8.05273 116.89 8.12109L117.595 8.81836L117.793 8.62695C117.909 8.49707 118.107 8.36719 118.387 8.24414C118.668 8.12109 118.962 8.05957 119.276 8.05957C119.714 8.05957 120.042 8.14844 120.267 8.32617C120.486 8.50391 120.602 8.74316 120.602 9.03027C120.602 9.31738 120.479 9.57031 120.24 9.77539C119.994 9.98047 119.673 10.083 119.276 10.083H118.504V10.9922H119.276C119.803 10.9922 120.199 11.0947 120.472 11.2998C120.746 11.5049 120.883 11.7783 120.883 12.1133C120.883 12.4482 120.746 12.7148 120.479 12.9199C120.206 13.125 119.809 13.2275 119.276 13.2275C118.921 13.2275 118.579 13.1455 118.251 12.9814C117.923 12.8174 117.704 12.6807 117.608 12.5713C117.512 12.4688 117.437 12.3867 117.383 12.3252L116.754 12.9541L116.849 13.084C116.918 13.166 117.02 13.2617 117.157 13.3779C117.294 13.4941 117.465 13.6104 117.656 13.7266C117.847 13.8359 118.08 13.9385 118.367 14.0205C118.654 14.1025 118.955 14.1436 119.276 14.1436C120.103 14.1436 120.739 13.9453 121.19 13.5557C121.635 13.166 121.86 12.6875 121.86 12.1201C121.86 11.8535 121.805 11.6211 121.71 11.416C121.614 11.2109 121.505 11.0537 121.388 10.9443C121.272 10.835 121.142 10.7461 120.992 10.6709C120.842 10.5957 120.739 10.5547 120.678 10.541C120.616 10.5273 120.568 10.5137 120.534 10.5068L120.643 10.4795C120.712 10.4521 120.794 10.3975 120.903 10.3291C121.012 10.2607 121.115 10.1719 121.218 10.0693C121.32 9.9668 121.409 9.82324 121.477 9.64551C121.546 9.46094 121.587 9.25586 121.587 9.03027ZM124.159 7.28027V14H127.379C128.062 14 128.595 13.8291 128.978 13.4736C129.354 13.125 129.546 12.6465 129.546 12.0381C129.546 11.792 129.505 11.5664 129.423 11.3613C129.34 11.1631 129.252 11.0127 129.156 10.9033C129.06 10.7939 128.944 10.7051 128.814 10.623C128.684 10.541 128.595 10.4932 128.541 10.4727C128.486 10.459 128.452 10.4453 128.424 10.4316L128.636 10.3018C128.773 10.2129 128.917 10.0488 129.053 9.81641C129.19 9.58398 129.265 9.31738 129.265 9.03027C129.265 8.52441 129.081 8.10742 128.712 7.7793C128.342 7.45117 127.85 7.28027 127.235 7.28027H124.159ZM127.379 10.8486C127.761 10.8486 128.055 10.9512 128.26 11.1426C128.465 11.3408 128.568 11.6143 128.568 11.9697C128.568 12.3252 128.465 12.6055 128.26 12.7969C128.055 12.9951 127.761 13.0908 127.379 13.0908H125.136V10.8486H127.379ZM128.288 9.09863C128.288 9.70703 127.932 10.0078 127.235 10.0078H125.136V8.18945H127.235C127.932 8.18945 128.288 8.49707 128.288 9.09863ZM137.286 10.6436C137.286 11.3682 137.04 11.9834 136.561 12.4824C136.083 12.9814 135.501 13.2275 134.832 13.2275C134.162 13.2275 133.581 12.9814 133.102 12.4756C132.624 11.9697 132.384 11.3613 132.384 10.6367C132.384 9.91211 132.624 9.30371 133.102 8.80469C133.581 8.30566 134.162 8.05273 134.832 8.05273C135.501 8.05273 136.083 8.30566 136.561 8.80469C137.04 9.30371 137.286 9.91895 137.286 10.6436ZM131.407 10.6436C131.407 11.6279 131.735 12.4551 132.405 13.1318C133.075 13.8018 133.881 14.1436 134.838 14.1436C135.789 14.1436 136.595 13.8018 137.258 13.1318C137.928 12.4551 138.256 11.6279 138.256 10.6436C138.256 9.65918 137.928 8.83203 137.258 8.15527C136.595 7.47852 135.789 7.13672 134.838 7.13672C133.881 7.13672 133.075 7.47852 132.405 8.15527C131.735 8.83203 131.407 9.65918 131.407 10.6436ZM145.313 14H146.297V7.28027H145.313V10.1514H141.464V7.28027H140.487V14H141.464V11.0605H145.313V14ZM154.393 10.6436C154.393 11.3682 154.147 11.9834 153.668 12.4824C153.19 12.9814 152.609 13.2275 151.939 13.2275C151.269 13.2275 150.688 12.9814 150.209 12.4756C149.731 11.9697 149.491 11.3613 149.491 10.6367C149.491 9.91211 149.731 9.30371 150.209 8.80469C150.688 8.30566 151.269 8.05273 151.939 8.05273C152.609 8.05273 153.19 8.30566 153.668 8.80469C154.147 9.30371 154.393 9.91895 154.393 10.6436ZM148.514 10.6436C148.514 11.6279 148.842 12.4551 149.512 13.1318C150.182 13.8018 150.989 14.1436 151.946 14.1436C152.896 14.1436 153.702 13.8018 154.365 13.1318C155.035 12.4551 155.364 11.6279 155.364 10.6436C155.364 9.65918 155.035 8.83203 154.365 8.15527C153.702 7.47852 152.896 7.13672 151.946 7.13672C150.989 7.13672 150.182 7.47852 149.512 8.15527C148.842 8.83203 148.514 9.65918 148.514 10.6436ZM158.571 12.1133L159.904 10.7119L162.283 14H163.404L160.533 10.0078L163.124 7.28027H161.928L158.571 10.8486V7.28027H157.594V14H158.571V12.1133Z" fill="url(#paint1_linear_0_1834)"/>
<circle cx="15.1964" cy="18.8039" r="7.80357" transform="rotate(-180 15.1964 18.8039)" stroke="url(#paint2_radial_0_1834)"/>
<circle cx="11.5" cy="22.5" r="11.5" transform="rotate(-180 11.5 22.5)" stroke="url(#paint3_radial_0_1834)"/>
<path opacity="0.356968" d="M44 19.5H164" stroke="url(#paint4_linear_0_1834)" stroke-dasharray="4"/>
</g>
<defs>
<filter id="filter0_d_0_1834" x="7.84021" y="-3.16016" width="32.3198" height="32.3145" filterUnits="userSpaceOnUse" color-interpolation-filters="sRGB">
<feFlood flood-opacity="0" result="BackgroundImageFix"/>
<feColorMatrix in="SourceAlpha" type="matrix" values="0 0 0 0 0 0 0 0 0 0 0 0 0 0 0 0 0 0 127 0" result="hardAlpha"/>
<feOffset dy="2"/>
<feGaussianBlur stdDeviation="4.5"/>
<feColorMatrix type="matrix" values="0 0 0 0 1 0 0 0 0 0.549398 0 0 0 0 0.230869 0 0 0 1 0"/>
<feBlend mode="normal" in2="BackgroundImageFix" result="effect1_dropShadow_0_1834"/>
<feBlend mode="normal" in="SourceGraphic" in2="effect1_dropShadow_0_1834" result="shape"/>
</filter>
<linearGradient id="paint0_linear_0_1834" x1="9.68031" y1="10.9969" x2="23.9944" y2="25.3167" gradientUnits="userSpaceOnUse">
<stop stop-color="#E9C6A4"/>
<stop offset="1" stop-color="#CE946B"/>
</linearGradient>
<linearGradient id="paint1_linear_0_1834" x1="11.5" y1="7.55375" x2="19.7493" y2="40.862" gradientUnits="userSpaceOnUse">
<stop stop-color="#E9BC9B"/>
<stop offset="1" stop-color="#CC936B"/>
</linearGradient>
<radialGradient id="paint2_radial_0_1834" cx="0" cy="0" r="1" gradientUnits="userSpaceOnUse" gradientTransform="translate(23 11.0003) rotate(57.6502) scale(13.5461)">
<stop stop-color="white"/>
<stop offset="0.621892" stop-color="white"/>
<stop offset="1" stop-color="white" stop-opacity="0.01"/>
</radialGradient>
<radialGradient id="paint3_radial_0_1834" cx="0" cy="0" r="1" gradientUnits="userSpaceOnUse" gradientTransform="translate(23 11) rotate(57.6502) scale(19.9627)">
<stop stop-color="white"/>
<stop offset="0.621892" stop-color="white"/>
<stop offset="1" stop-color="white" stop-opacity="0.01"/>
</radialGradient>
<linearGradient id="paint4_linear_0_1834" x1="-11.5612" y1="19.4815" x2="-11.5458" y2="21.4088" gradientUnits="userSpaceOnUse">
<stop stop-color="#E9C6A4"/>
<stop offset="1" stop-color="#CE946B"/>
</linearGradient>
<clipPath id="clip0_0_1834">
<rect width="165" height="34" fill="white"/>
</clipPath>
</defs>
</svg>
