<svg width="34" height="30" viewBox="0 0 34 30" fill="none" xmlns="http://www.w3.org/2000/svg">
<g filter="url(#filter0_d_0_1835)">
<path d="M23.943 16.6807L23.686 16.9376C22.374 18.2497 19.8816 18.5516 18.2939 17.591L18.1858 17.5256L18.0699 17.4756C17.9276 17.4142 17.5709 17.2208 17.0316 16.8591C16.0737 16.2166 14.9981 15.3333 13.8367 14.1718C12.6752 13.0103 11.7918 11.9347 11.1494 10.9769C10.7876 10.4376 10.5942 10.0809 10.5329 9.93856L10.4773 9.80975L10.4029 9.69086C9.43755 8.14864 9.74878 5.6445 11.0724 4.32084L11.3422 4.05106C11.6414 3.7519 11.999 3.77226 12.2592 4.10112L13.7279 5.95801C14.0901 6.41587 14.0432 7.21298 13.6253 7.63098C12.7361 8.53051 12.7405 9.97962 13.6353 10.8744L17.1342 14.3733C18.0311 15.2702 19.4902 15.2707 20.3888 14.3722L20.4606 14.3003C20.8686 13.8923 21.6333 13.8546 22.081 14.2214L23.8919 15.705C24.23 15.982 24.2498 16.3739 23.943 16.6807Z" fill="url(#paint0_linear_0_1835)"/>
</g>
<defs>
<filter id="filter0_d_0_1835" x="0.84021" y="-3.16016" width="32.3198" height="32.3145" filterUnits="userSpaceOnUse" color-interpolation-filters="sRGB">
<feFlood flood-opacity="0" result="BackgroundImageFix"/>
<feColorMatrix in="SourceAlpha" type="matrix" values="0 0 0 0 0 0 0 0 0 0 0 0 0 0 0 0 0 0 127 0" result="hardAlpha"/>
<feOffset dy="2"/>
<feGaussianBlur stdDeviation="4.5"/>
<feColorMatrix type="matrix" values="0 0 0 0 1 0 0 0 0 0.549398 0 0 0 0 0.230869 0 0 0 1 0"/>
<feBlend mode="normal" in2="BackgroundImageFix" result="effect1_dropShadow_0_1835"/>
<feBlend mode="normal" in="SourceGraphic" in2="effect1_dropShadow_0_1835" result="shape"/>
</filter>
<linearGradient id="paint0_linear_0_1835" x1="2.68031" y1="10.9969" x2="16.9944" y2="25.3167" gradientUnits="userSpaceOnUse">
<stop stop-color="#E9C6A4"/>
<stop offset="1" stop-color="#CE946B"/>
</linearGradient>
</defs>
</svg>
