<svg width="52" height="53" viewBox="0 0 52 53" fill="none" xmlns="http://www.w3.org/2000/svg">
<path fill-rule="evenodd" clip-rule="evenodd" d="M36.6078 4.14408C33.3016 2.53832 29.6723 1.70889 25.9968 1.71906C12.5811 1.71804 1.64816 12.6316 1.62481 26.0464C1.62297 26.494 1.25999 26.8561 0.812407 26.8568H0.811391C0.595838 26.8568 0.389135 26.7711 0.236906 26.6185C0.0846771 26.4658 -0.000561023 26.2589 5.58608e-06 26.0434C0.00280068 24.2862 0.182434 22.5337 0.53619 20.8125C0.881183 19.1426 1.39039 17.5109 2.0564 15.9412C7.00017 4.31081 19.5831 -2.08859 31.8939 0.766519C33.7668 1.20095 35.5854 1.84335 37.3156 2.68176C37.7193 2.87705 37.8884 3.36249 37.6934 3.76631C37.5568 4.04635 37.2728 4.22436 36.9612 4.22532C36.8388 4.22537 36.7179 4.19759 36.6078 4.14408ZM39.95 5.80777C39.7392 5.85158 39.5196 5.80982 39.3395 5.6917C39.0646 5.5116 38.9252 5.18358 38.9865 4.86066C39.0478 4.53774 39.2976 4.28356 39.6194 4.2167C39.9412 4.14984 40.2716 4.28347 40.4564 4.55526C40.6413 4.82704 40.6441 5.18342 40.4637 5.45814C40.3456 5.6382 40.1608 5.76397 39.95 5.80777ZM17.3468 24.4718C17.3154 24.4681 17.2839 24.4663 17.2523 24.4663C15.9317 24.4679 14.6294 24.7753 13.4475 25.3645C13.05 25.5672 12.8903 26.0525 13.0899 26.4516C13.2895 26.8507 13.7735 27.0141 14.1742 26.8177C15.1161 26.3482 16.1527 26.0997 17.2051 26.0911C18.4451 26.2427 20.6274 26.7449 21.3604 27.4779C21.6776 27.7951 22.192 27.7951 22.5093 27.4779C22.8266 27.1606 22.8266 26.6462 22.5093 26.3289C21.1309 24.9507 17.7301 24.5171 17.3468 24.4718ZM40.0615 42.0052C39.8838 41.8834 39.665 41.8371 39.4532 41.8766C39.2414 41.9161 39.0539 42.0381 38.9321 42.2158C37.4471 44.3803 35.0391 46.5706 31.774 48.7266C28.2715 51.0453 23.722 51.0453 20.2195 48.7266C16.1841 46.0616 11.3736 41.9439 11.3736 37.4586V26.9035C11.3736 26.4548 11.0099 26.0911 10.5612 26.0911C10.1125 26.0911 9.74882 26.4548 9.74882 26.9035V37.4586C9.74882 42.6665 14.9559 47.1973 19.3241 50.0818C23.3695 52.7598 28.6241 52.7598 32.6695 50.0818C36.1101 47.8103 38.6679 45.473 40.2716 43.1346C40.5253 42.7647 40.4313 42.2591 40.0615 42.0052ZM13.2364 32.3524C13.3887 32.5047 13.5954 32.5903 13.8108 32.5903C14.0263 32.5903 14.2329 32.5047 14.3853 32.3524L15.491 31.2467C15.8398 31.4977 16.2096 31.7182 16.5962 31.9057L15.6736 32.8282C15.4683 33.0335 15.3882 33.3326 15.4633 33.613C15.5384 33.8933 15.7574 34.1123 16.0378 34.1875C16.3181 34.2626 16.6173 34.1824 16.8225 33.9772L18.3213 32.4783C18.7091 32.5522 19.1029 32.5897 19.4976 32.5903C21.4039 32.5903 22.402 31.6474 22.5093 31.54L21.3604 30.391L21.3697 30.3819C21.3442 30.4058 20.7314 30.9655 19.4976 30.9655C17.4453 30.9655 16.0217 29.5901 16.0101 29.5786C15.8577 29.4263 15.6511 29.3407 15.4356 29.3407C15.2202 29.3407 15.0135 29.4263 14.8612 29.5786L13.2364 31.2034C13.084 31.3558 12.9984 31.5624 12.9984 31.7779C12.9984 31.9934 13.084 32.2 13.2364 32.3524ZM21.1224 43.1515C21.1224 44.722 22.4457 47.2135 25.9968 47.2135C29.548 47.2135 30.8713 44.722 30.8713 43.1515C30.8713 42.8976 30.7525 42.6583 30.5504 42.5047C29.8418 41.9664 28.088 40.7143 27.1047 40.7143C26.695 40.7265 26.3027 40.8828 25.9968 41.1557C25.691 40.8828 25.2987 40.7265 24.889 40.7143C23.9057 40.7143 22.1519 41.9663 21.4433 42.5047C21.2412 42.6583 21.1224 42.8976 21.1224 43.1515ZM24.8675 42.3418C24.9648 42.3881 25.1315 42.5578 25.3627 42.8469C25.5168 43.0394 25.7502 43.1515 25.9968 43.1515C26.2435 43.1515 26.4769 43.0394 26.631 42.8469C26.861 42.5595 27.0271 42.3899 27.1244 42.3427C27.4418 42.3969 28.331 42.9081 29.1889 43.52C29.0243 44.2012 28.3939 45.5887 25.9968 45.5887C23.5998 45.5887 22.9694 44.2012 22.8048 43.52C23.6689 42.9035 24.5638 42.3899 24.8675 42.3418ZM0.812407 28.4826C0.36373 28.4826 5.58608e-06 28.8463 5.58608e-06 29.295V51.2755C5.58608e-06 51.7242 0.36373 52.0879 0.812407 52.0879C1.26108 52.0879 1.62481 51.7242 1.62481 51.2755V29.295C1.62481 28.8463 1.26108 28.4826 0.812407 28.4826ZM51.356 20.3444C50.5343 16.7082 48.9371 13.2924 46.6735 10.3305C45.5615 8.87393 44.2994 7.53831 42.908 6.34568C42.5671 6.05446 42.0548 6.09398 41.7625 6.43403C41.4706 6.77475 41.5102 7.28759 41.8509 7.57952C47.2583 12.2093 50.3704 18.9725 50.3689 26.0911V51.2755C50.3689 51.7242 50.7326 52.0879 51.1813 52.0879C51.63 52.0879 51.9937 51.7242 51.9937 51.2755V26.0911C51.9944 24.1578 51.7805 22.2304 51.356 20.3444ZM29.2465 22.0291C29.2465 22.4778 28.8827 22.8415 28.4341 22.8415C27.9854 22.8415 27.6217 22.4778 27.6217 22.0291V15.5299C27.6217 15.0812 27.9854 14.7175 28.4341 14.7175C28.8827 14.7175 29.2465 15.0812 29.2465 15.5299V22.0291ZM47.6989 46.4011C47.7452 46.4011 47.7913 46.3972 47.8369 46.3895C48.0493 46.3531 48.2386 46.2339 48.3631 46.058C48.4876 45.8822 48.5371 45.664 48.5008 45.4516C48.2477 43.9722 47.7986 42.533 47.1652 41.1722C47.0471 40.902 46.7919 40.717 46.4984 40.6888C46.2048 40.6606 45.9191 40.7937 45.7518 41.0365C45.5844 41.2793 45.5618 41.5937 45.6927 41.858C46.2652 43.0878 46.6711 44.3885 46.8997 45.7256C46.9663 46.1152 47.3037 46.4004 47.6989 46.4011ZM29.4205 25.1055C30.1033 28.4293 32.6281 31.0691 35.9183 31.8992C39.7245 32.8521 43.0831 35.094 45.423 38.2436C45.5979 38.4767 45.6346 38.7857 45.519 39.0533C45.4035 39.3208 45.1535 39.506 44.8639 39.5386C44.5742 39.5711 44.2894 39.446 44.1174 39.2107C42.0019 36.3632 38.9653 34.3364 35.5242 33.475C31.6269 32.4913 28.6364 29.3639 27.8278 25.4266C27.768 25.1411 27.8659 24.8455 28.0842 24.6521C28.3026 24.4586 28.6078 24.3971 28.884 24.4908C29.1602 24.5845 29.365 24.8191 29.4205 25.1055ZM17.8728 15.5299C17.8728 15.9786 18.2366 16.3423 18.6852 16.3423C19.1339 16.3423 19.4976 15.9786 19.4976 15.5299C19.5002 13.2875 21.3173 11.4704 23.5596 11.4679C24.0083 11.4679 24.372 11.1042 24.372 10.6555C24.372 10.2068 24.0083 9.84307 23.5596 9.84307C20.4204 9.84665 17.8764 12.3906 17.8728 15.5299ZM25.9968 23.3538C25.9906 28.889 29.7589 33.7153 35.1303 35.0518C41.2255 36.5683 45.5016 42.045 45.4945 48.326V51.2755C45.4945 51.7242 45.1308 52.0879 44.6821 52.0879C44.2334 52.0879 43.8697 51.7242 43.8697 51.2755V48.326C43.8759 42.7909 40.1076 37.9645 34.7363 36.628C28.641 35.1116 24.3649 29.6348 24.372 23.3538V15.5299C24.372 15.0812 24.0083 14.7175 23.5596 14.7175C23.111 14.7175 22.7472 15.0812 22.7472 15.5299V17.1547C22.7472 18.2662 22.1678 19.0766 21.0252 19.5636C20.1663 19.9296 19.0722 20.0934 17.8055 20.2831L17.805 20.2831C13.4919 20.9288 8.12402 21.7324 8.12402 30.9655V37.4139C8.12211 41.8473 6.96524 46.2036 4.76738 50.0538C4.54446 50.4427 4.0487 50.5775 3.65952 50.3551C3.27034 50.1327 3.1348 49.6372 3.35664 49.2477C5.41435 45.6431 6.49745 41.5645 6.49922 37.4139V30.9655C6.49922 26.2961 7.77184 23.0663 10.3899 21.0916C12.6087 19.4181 15.3563 19.0068 17.5643 18.6762C20.0927 18.2977 21.1224 18.0541 21.1224 17.1547V15.5299C21.1224 14.1839 22.2136 13.0927 23.5596 13.0927C24.9057 13.0927 25.9968 14.1839 25.9968 15.5299V23.3538ZM48.7441 49.6507C48.7441 50.0994 48.3804 50.4631 47.9317 50.4631C47.483 50.4631 47.1193 50.0994 47.1193 49.6507C47.1193 49.2021 47.483 48.8383 47.9317 48.8383C48.3804 48.8383 48.7441 49.2021 48.7441 49.6507ZM26.8092 11.4679C27.2579 11.4679 27.6217 11.1042 27.6217 10.6555C27.6217 10.2068 27.2579 9.84307 26.8092 9.84307C26.3606 9.84307 25.9968 10.2068 25.9968 10.6555C25.9968 11.1042 26.3606 11.4679 26.8092 11.4679Z" fill="url(#paint0_linear_0_739)"/>
<defs>
<linearGradient id="paint0_linear_0_739" x1="-13.5474" y1="14.2606" x2="14.795" y2="66.2577" gradientUnits="userSpaceOnUse">
<stop stop-color="#AC6C44"/>
<stop offset="1" stop-color="#301103"/>
</linearGradient>
</defs>
</svg>
