<svg width="51" height="50" viewBox="0 0 51 50" fill="none" xmlns="http://www.w3.org/2000/svg">
<path fill-rule="evenodd" clip-rule="evenodd" d="M2.56156 13.1476C2.8635 13.1472 3.14156 12.9834 3.28835 12.7195C3.43515 12.4557 3.4277 12.1331 3.26888 11.8763C1.09432 8.35433 2.18069 3.73681 5.69743 1.55386C5.95987 1.40171 6.11885 1.11893 6.11249 0.81565C6.10613 0.512366 5.93542 0.23651 5.66684 0.0954927C5.39826 -0.0455244 5.07425 -0.0294127 4.82099 0.137554C0.523176 2.80536 -0.80465 8.44834 1.85257 12.7527C2.00448 12.9983 2.27276 13.1478 2.56156 13.1476ZM25.43 50C32.0541 50 38.7599 48.2829 38.7599 45.0013V43.6049C39.7289 43.004 40.3492 41.9732 40.4262 40.8356V7.5107C40.3509 6.3536 39.7139 5.30668 38.7208 4.70807C38.3151 1.62718 31.845 0.0125859 25.43 0.0125859C19.0149 0.0125859 12.5449 1.62718 12.1391 4.70807C11.1461 5.30668 10.509 6.3536 10.4337 7.5107V40.8356C10.5108 41.9732 11.131 43.004 12.1 43.6049V45.0013C12.1 48.2829 18.8058 50 25.43 50ZM37.0937 45.0013C37.0937 46.3601 32.5498 48.3338 25.43 48.3338C18.3101 48.3338 13.7662 46.3601 13.7662 45.0013V44.5847C16.693 45.9502 21.1344 46.6675 25.43 46.6675C29.7256 46.6675 34.1669 45.9485 37.0937 44.5847V45.0013ZM12.1 40.8356C12.1 42.5752 17.1712 45.0013 25.43 45.0013C33.6887 45.0013 38.7599 42.5752 38.7599 40.8356V10.28C36.1014 12.2812 30.6553 13.3426 25.43 13.3426C20.2046 13.3426 14.7585 12.2812 12.1 10.28V40.8356ZM25.43 1.67883C32.5498 1.67883 37.0937 3.6525 37.0937 5.01133C37.0937 6.37015 32.5498 8.34382 25.43 8.34382C18.3101 8.34382 13.7662 6.37015 13.7662 5.01133C13.7662 3.6525 18.3101 1.67883 25.43 1.67883ZM25.43 10.0101C19.8822 10.0101 14.2928 8.80121 12.6182 6.48179C12.32 6.74569 12.1345 7.114 12.1 7.5107C12.1 9.25026 17.1712 11.6763 25.43 11.6763C33.6887 11.6763 38.7599 9.25026 38.7599 7.5107C38.7254 7.114 38.5399 6.74569 38.2417 6.48179C36.5672 8.80121 30.9777 10.0101 25.43 10.0101ZM18.765 5.84445H20.4312C20.8913 5.84445 21.2643 5.47145 21.2643 5.01133C21.2643 4.55121 20.8913 4.1782 20.4312 4.1782H18.765C18.3049 4.1782 17.9319 4.55121 17.9319 5.01133C17.9319 5.47145 18.3049 5.84445 18.765 5.84445ZM32.095 5.84445H30.4287C29.9686 5.84445 29.5956 5.47145 29.5956 5.01133C29.5956 4.55121 29.9686 4.1782 30.4287 4.1782H32.095C32.5551 4.1782 32.9281 4.55121 32.9281 5.01133C32.9281 5.47145 32.5551 5.84445 32.095 5.84445ZM15.4325 15.0088C15.4325 15.4689 15.0595 15.8419 14.5994 15.8419C14.1392 15.8419 13.7662 15.4689 13.7662 15.0088C13.7662 14.5487 14.1392 14.1757 14.5994 14.1757C15.0595 14.1757 15.4325 14.5487 15.4325 15.0088ZM18.765 16.6751C19.2251 16.6751 19.5981 16.3021 19.5981 15.8419C19.5981 15.3818 19.2251 15.0088 18.765 15.0088C18.3049 15.0088 17.9319 15.3818 17.9319 15.8419C17.9319 16.3021 18.3049 16.6751 18.765 16.6751ZM17.0987 18.3413C17.0987 18.8014 16.7257 19.1744 16.2656 19.1744C15.8055 19.1744 15.4325 18.8014 15.4325 18.3413C15.4325 17.8812 15.8055 17.5082 16.2656 17.5082C16.7257 17.5082 17.0987 17.8812 17.0987 18.3413ZM20.4312 20.0076C20.8913 20.0076 21.2643 19.6346 21.2643 19.1744C21.2643 18.7143 20.8913 18.3413 20.4312 18.3413C19.9711 18.3413 19.5981 18.7143 19.5981 19.1744C19.5981 19.6346 19.9711 20.0076 20.4312 20.0076ZM35.4275 18.3413C35.4275 18.8014 35.0544 19.1744 34.5943 19.1744C34.1342 19.1744 33.7612 18.8014 33.7612 18.3413C33.7612 17.8812 34.1342 17.5082 34.5943 17.5082C35.0544 17.5082 35.4275 17.8812 35.4275 18.3413ZM30.4287 20.0076C30.8888 20.0076 31.2618 19.6346 31.2618 19.1744C31.2618 18.7143 30.8888 18.3413 30.4287 18.3413C29.9686 18.3413 29.5956 18.7143 29.5956 19.1744C29.5956 19.6346 29.9686 20.0076 30.4287 20.0076ZM26.2631 19.1744C26.2631 19.6346 25.8901 20.0076 25.43 20.0076C24.9698 20.0076 24.5968 19.6346 24.5968 19.1744C24.5968 18.7143 24.9698 18.3413 25.43 18.3413C25.8901 18.3413 26.2631 18.7143 26.2631 19.1744ZM22.9306 17.5082C23.3907 17.5082 23.7637 17.1352 23.7637 16.6751C23.7637 16.2149 23.3907 15.8419 22.9306 15.8419C22.4705 15.8419 22.0975 16.2149 22.0975 16.6751C22.0975 17.1352 22.4705 17.5082 22.9306 17.5082ZM37.0937 15.0088C37.0937 15.4689 36.7207 15.8419 36.2606 15.8419C35.8004 15.8419 35.4274 15.4689 35.4274 15.0088C35.4274 14.5487 35.8004 14.1757 36.2606 14.1757C36.7207 14.1757 37.0937 14.5487 37.0937 15.0088ZM32.095 16.6751C32.5551 16.6751 32.9281 16.3021 32.9281 15.8419C32.9281 15.3818 32.5551 15.0088 32.095 15.0088C31.6348 15.0088 31.2618 15.3818 31.2618 15.8419C31.2618 16.3021 31.6348 16.6751 32.095 16.6751ZM28.7625 16.6751C28.7625 17.1352 28.3895 17.5082 27.9293 17.5082C27.4692 17.5082 27.0962 17.1352 27.0962 16.6751C27.0962 16.2149 27.4692 15.8419 27.9293 15.8419C28.3895 15.8419 28.7625 16.2149 28.7625 16.6751ZM14.5994 21.6738C15.0595 21.6738 15.4325 21.3008 15.4325 20.8407C15.4325 20.3806 15.0595 20.0076 14.5994 20.0076C14.1392 20.0076 13.7662 20.3806 13.7662 20.8407C13.7662 21.3008 14.1392 21.6738 14.5994 21.6738ZM19.5981 21.6738C19.5981 22.1339 19.2251 22.5069 18.765 22.5069C18.3049 22.5069 17.9319 22.1339 17.9319 21.6738C17.9319 21.2137 18.3049 20.8407 18.765 20.8407C19.2251 20.8407 19.5981 21.2137 19.5981 21.6738ZM22.9306 23.34C23.3907 23.34 23.7637 22.967 23.7637 22.5069C23.7637 22.0468 23.3907 21.6738 22.9306 21.6738C22.4705 21.6738 22.0975 22.0468 22.0975 22.5069C22.0975 22.967 22.4705 23.34 22.9306 23.34ZM37.0937 20.8407C37.0937 21.3008 36.7207 21.6738 36.2606 21.6738C35.8004 21.6738 35.4274 21.3008 35.4274 20.8407C35.4274 20.3806 35.8004 20.0076 36.2606 20.0076C36.7207 20.0076 37.0937 20.3806 37.0937 20.8407ZM32.095 22.5069C32.5551 22.5069 32.9281 22.1339 32.9281 21.6738C32.9281 21.2137 32.5551 20.8407 32.095 20.8407C31.6348 20.8407 31.2618 21.2137 31.2618 21.6738C31.2618 22.1339 31.6348 22.5069 32.095 22.5069ZM28.7625 22.5069C28.7625 22.967 28.3895 23.34 27.9293 23.34C27.4692 23.34 27.0962 22.967 27.0962 22.5069C27.0962 22.0468 27.4692 21.6738 27.9293 21.6738C28.3895 21.6738 28.7625 22.0468 28.7625 22.5069ZM29.9663 25.9794C30.222 25.8087 30.5509 25.7927 30.8219 25.9377C31.0929 26.0828 31.262 26.3652 31.2618 26.6725V33.3375C31.2618 34.7179 30.1428 35.8369 28.7625 35.8369C27.3821 35.8369 26.2631 34.7179 26.2631 33.3375C26.2631 31.9572 27.3821 30.8382 28.7625 30.8382C29.0469 30.8409 29.3288 30.8928 29.5956 30.9915V28.0114C27.9813 28.5199 26.2764 28.6748 24.5968 28.4654V35.0038C24.5968 36.3841 23.4778 37.5031 22.0975 37.5031C20.7171 37.5031 19.5981 36.3841 19.5981 35.0038C19.5981 33.6234 20.7171 32.5044 22.0975 32.5044C22.3819 32.5072 22.6638 32.559 22.9306 32.6577V27.5057C22.9305 27.2562 23.0423 27.0198 23.2351 26.8616C23.4279 26.7033 23.6815 26.6397 23.9262 26.6884C23.9678 26.6967 27.7885 27.4315 29.9663 25.9794ZM21.2643 35.0038C21.2643 35.4639 21.6374 35.8369 22.0975 35.8369C22.5576 35.8369 22.9306 35.4639 22.9306 35.0038C22.9306 34.5437 22.5576 34.1707 22.0975 34.1707C21.6374 34.1707 21.2643 34.5437 21.2643 35.0038ZM28.7625 34.1707C28.3023 34.1707 27.9293 33.7976 27.9293 33.3375C27.9293 32.8774 28.3023 32.5044 28.7625 32.5044C29.2226 32.5044 29.5956 32.8774 29.5956 33.3375C29.5956 33.7976 29.2226 34.1707 28.7625 34.1707ZM7.20425 2.86829C7.41941 2.91891 7.60563 3.05297 7.72192 3.24094C7.96375 3.63208 7.84293 4.14517 7.45199 4.38732C5.49791 5.59959 4.89378 8.16481 6.1015 10.1217C6.26443 10.3749 6.27809 10.6963 6.13723 10.9624C5.99637 11.2284 5.7229 11.3978 5.42192 11.4054C5.12095 11.413 4.83929 11.2576 4.68519 10.999C2.99409 8.2597 3.83935 4.66846 6.57471 2.97101C6.76262 2.85461 6.98908 2.81766 7.20425 2.86829ZM46.0389 0.137554C45.7857 -0.0294127 45.4617 -0.0455244 45.1931 0.0954927C44.9245 0.23651 44.7538 0.512366 44.7474 0.81565C44.7411 1.11893 44.9001 1.40171 45.1625 1.55386C48.6792 3.73681 49.7656 8.35433 47.5911 11.8763C47.3649 12.2663 47.49 12.7654 47.8734 13.0026C48.2567 13.2398 48.7592 13.1291 49.0074 12.7527C51.6646 8.44834 50.3368 2.80536 46.0389 0.137554ZM45.6562 11.3716C45.4411 11.4223 45.2146 11.3853 45.0267 11.2689C44.6358 11.0262 44.5157 10.5126 44.7584 10.1217C45.9661 8.16481 45.362 5.59959 43.4079 4.38732C43.1493 4.23322 42.9939 3.95156 43.0015 3.65058C43.0091 3.34961 43.1785 3.07614 43.4446 2.93528C43.7107 2.79442 44.032 2.80808 44.2852 2.97101C47.0203 4.66873 47.8652 8.25991 46.1739 10.999C46.0576 11.187 45.8714 11.321 45.6562 11.3716ZM4.82099 49.875C4.95217 49.9569 5.10374 50.0002 5.25838 50C5.63066 50.0001 5.95782 49.7532 6.05981 49.3951C6.1618 49.0371 6.01388 48.6548 5.69743 48.4587C2.18069 46.2758 1.09432 41.6583 3.26888 38.1363C3.495 37.7463 3.36989 37.2472 2.98654 37.01C2.6032 36.7728 2.1007 36.8835 1.85257 37.2599C-0.80465 41.5642 0.523176 47.2072 4.82099 49.875ZM5.2037 38.6409C5.41886 38.5903 5.64533 38.6273 5.83323 38.7437C6.22409 38.9864 6.34419 39.5 6.1015 39.8909C4.89378 41.8478 5.49791 44.413 7.45199 45.6253C7.71064 45.7794 7.86603 46.061 7.85843 46.362C7.85084 46.663 7.68145 46.9364 7.41537 47.0773C7.14928 47.2182 6.82789 47.2045 6.57471 47.0416C3.83965 45.3439 2.99477 41.7527 4.68602 39.0136C4.80232 38.8256 4.98854 38.6916 5.2037 38.6409ZM45.6016 50C45.7562 50.0002 45.9078 49.9569 46.0389 49.875C50.3368 47.2072 51.6646 41.5642 49.0074 37.2599C48.7592 36.8835 48.2567 36.7728 47.8734 37.01C47.49 37.2472 47.3649 37.7463 47.5911 38.1363C49.7656 41.6583 48.6792 46.2758 45.1625 48.4587C44.8461 48.6548 44.6981 49.0371 44.8001 49.3951C44.9021 49.7532 45.2293 50.0001 45.6016 50ZM43.6557 47.1443C43.4405 47.0937 43.2543 46.9596 43.138 46.7716C42.8965 46.3801 43.0181 45.8669 43.4096 45.6253C45.3631 44.4124 45.9665 41.8473 44.7584 39.8909C44.5955 39.6377 44.5818 39.3163 44.7227 39.0502C44.8636 38.7841 45.137 38.6147 45.438 38.6072C45.739 38.5996 46.0206 38.755 46.1747 39.0136C47.8658 41.7529 47.0206 45.3441 44.2852 47.0416C44.0973 47.158 43.8708 47.1949 43.6557 47.1443Z" fill="url(#paint0_linear_0_685)"/>
<defs>
<linearGradient id="paint0_linear_0_685" x1="-12.5166" y1="13.6253" x2="14.7656" y2="63.5762" gradientUnits="userSpaceOnUse">
<stop stop-color="#AC6C44"/>
<stop offset="1" stop-color="#301103"/>
</linearGradient>
</defs>
</svg>
