<svg width="48" height="49" viewBox="0 0 48 49" fill="none" xmlns="http://www.w3.org/2000/svg">
<path fill-rule="evenodd" clip-rule="evenodd" d="M47.3665 0.747844L47.3703 0.751337L47.3736 0.754313C48.1438 1.52437 48.2124 2.74631 47.5329 3.59672C42.5254 9.86372 37.2992 16.1717 31.9082 22.4606L45.8059 36.3573C46.4698 37.0213 46.8356 37.9042 46.8356 38.8433C46.8356 39.7823 46.4698 40.6652 45.8058 41.3292L44.315 42.82L44.3144 42.8208L44.3136 42.8214L39.2127 47.9225C39.0753 48.0597 38.8953 48.1283 38.7154 48.1283C38.5355 48.1283 38.3555 48.0597 38.2182 47.9225C37.9436 47.6479 37.9436 47.2028 38.2182 46.9281L42.8226 42.3236L41.8165 41.3175L37.212 45.9219C37.0747 46.0592 36.8947 46.1278 36.7148 46.1278C36.5349 46.1278 36.3549 46.0592 36.2175 45.9219C35.9429 45.6473 35.9429 45.2022 36.2175 44.9275L40.822 40.3231L39.8158 39.317L35.2114 43.9214C35.0741 44.0587 34.8941 44.1273 34.7142 44.1273C34.5343 44.1273 34.3543 44.0587 34.2169 43.9214C33.9423 43.6468 33.9423 43.2017 34.2169 42.927L38.8214 38.3226L37.8152 37.3164L33.2108 41.9209C33.0734 42.0581 32.8934 42.1268 32.7135 42.1268C32.5336 42.1268 32.3536 42.0581 32.2163 41.9209C31.9417 41.6463 31.9417 41.2012 32.2163 40.9265L36.8207 36.322L35.8145 35.3158L31.2101 39.9203C31.0727 40.0576 30.8927 40.1262 30.7128 40.1262C30.5329 40.1262 30.3529 40.0576 30.2156 39.9203C29.941 39.6458 29.941 39.2006 30.2156 38.9259L34.82 34.3214L33.8139 33.3153L29.2094 37.9197C29.0721 38.057 28.8921 38.1256 28.7122 38.1256C28.5323 38.1256 28.3523 38.057 28.2149 37.9197C27.9403 37.6451 27.9403 37.2 28.2149 36.9253L32.8194 32.3209L31.8133 31.3148L27.2088 35.9192C27.0715 36.0564 26.8915 36.1251 26.7116 36.1251C26.5317 36.1251 26.3517 36.0564 26.2143 35.9192C25.9397 35.6446 25.9397 35.1995 26.2143 34.9248L30.8188 30.3203L29.8125 29.3141L25.2081 33.9186C25.0708 34.0558 24.8908 34.1244 24.7108 34.1244C24.5309 34.1244 24.3509 34.0558 24.2136 33.9186C23.939 33.644 23.939 33.1988 24.2136 32.9242L28.818 28.3197L27.7587 27.2603C25.2834 30.0988 22.7777 32.9304 20.2446 35.7492L18.8089 37.3813C19.9724 38.5702 20.6136 40.1405 20.6117 41.8045C20.6156 45.3059 17.7736 48.1289 14.2865 48.1289H14.279C10.0115 48.1289 6.9411 43.9665 8.26035 39.8625C6.87622 40.3062 5.34398 40.2672 3.94523 39.7008C1.58957 38.744 -0.00277491 36.4424 0.000318836 33.8367C-0.00380616 30.3787 2.80626 27.5161 6.32169 27.5161H6.33107C8.17879 27.5161 9.92723 28.3185 11.1291 29.7173C11.4971 29.9808 11.5203 30.5143 11.191 30.8104L11.1844 30.8161C11.1807 30.8198 11.1779 30.8227 11.1741 30.8255C10.8779 31.0943 10.4105 31.0604 10.156 30.7467C9.21754 29.5889 7.8216 28.9233 6.32638 28.9223C3.58119 28.9243 1.40835 31.1464 1.40648 33.8367C1.40957 38.2681 6.79429 40.4033 9.85194 37.2743L11.9726 35.1537C12.8565 34.2706 13.3431 33.0875 13.3431 31.8228C13.3431 30.741 12.969 29.6947 12.2922 28.8754C12.2912 28.8754 12.2912 28.8744 12.2912 28.8744C12.0849 28.6681 12.0057 28.1392 12.4215 27.8384C12.7201 27.5692 13.0204 27.2934 13.3169 27.0211L13.3169 27.0211L13.3169 27.0211L13.3169 27.021C13.6946 26.6742 14.0659 26.3331 14.4194 26.0188C14.4194 26.0178 14.4194 26.0178 14.4203 26.0178C16.5439 24.1241 18.6917 22.2328 20.8507 20.3527L19.809 19.311L15.2045 23.9155C15.0673 24.0528 14.8873 24.1214 14.7074 24.1214C14.5274 24.1214 14.3474 24.0528 14.2102 23.9155C13.9356 23.6409 13.9356 23.1958 14.2102 22.9211L18.8146 18.3167L17.8083 17.3104L13.2039 21.9148C13.0666 22.0521 12.8866 22.1207 12.7067 22.1207C12.5268 22.1207 12.3468 22.0521 12.2096 21.9148C11.935 21.6402 11.935 21.1951 12.2096 20.9204L16.814 16.316L15.8078 15.3097L11.2034 19.9142C11.0661 20.0514 10.8861 20.1201 10.7062 20.1201C10.5263 20.1201 10.3463 20.0514 10.209 19.9142C9.93444 19.6396 9.93444 19.1945 10.209 18.9198L14.8135 14.3153L13.8073 13.3091L9.20282 17.9136C9.06557 18.0508 8.88557 18.1194 8.70566 18.1194C8.52576 18.1194 8.34576 18.0508 8.20851 17.9136C7.93391 17.639 7.93391 17.1938 8.20851 16.9192L12.8129 12.3147L11.8067 11.3085L7.20229 15.9129C7.06504 16.0502 6.88504 16.1188 6.70513 16.1188C6.52522 16.1188 6.34522 16.0502 6.20797 15.9129C5.93338 15.6383 5.93338 15.1932 6.20797 14.9185L10.8124 10.3141L9.80619 9.30787L5.20166 13.9124C5.06441 14.0497 4.88441 14.1183 4.70451 14.1183C4.5246 14.1183 4.3446 14.0497 4.20735 13.9124C3.93276 13.6378 3.93276 13.1927 4.20735 12.918L8.81188 8.31356L7.80566 7.30734L3.20113 11.9118C3.06388 12.049 2.88388 12.1177 2.70397 12.1177C2.52407 12.1177 2.34407 12.049 2.20682 11.9118C1.93223 11.6372 1.93223 11.1921 2.20682 10.9174L6.81126 6.31294L5.80504 5.30672L1.20051 9.91116C0.926006 10.1857 0.480788 10.1857 0.206194 9.91116C-0.0683999 9.63656 -0.0683999 9.19144 0.206194 8.91675L6.79935 2.3235C8.17007 0.953062 10.4004 0.952875 11.7712 2.3235L25.6535 16.2056C26.8694 15.1652 28.0863 14.1305 29.3023 13.1038C34.3028 8.88131 39.4262 4.67287 44.5308 0.595688C44.9058 0.294844 45.3783 0.128906 45.861 0.128906H45.8638C46.4223 0.128906 46.9694 0.354375 47.3665 0.747844ZM7.79376 3.318L6.79944 4.31231L21.9144 19.4274C22.8026 18.6569 23.6925 17.8897 24.5833 17.1245L10.7769 3.318C9.95441 2.49563 8.61613 2.49563 7.79376 3.318ZM44.8112 37.3523C45.2097 37.7507 45.4291 38.2804 45.4291 38.8438C45.4291 39.4072 45.2097 39.9369 44.8112 40.3353L43.8169 41.3296L34.5479 32.0607L28.6842 26.197C29.4557 25.3089 30.2247 24.4203 30.9898 23.5311L44.8112 37.3523ZM19.4322 34.2604C19.4923 34.3018 19.5458 34.3387 19.5898 34.3724C35.1172 17.0676 46.4408 2.72475 46.4983 2.62359L46.086 3.0357L46.0706 3.05109C42.5752 6.54535 18.8853 30.2273 18.8071 30.3164C18.5515 30.6044 18.1055 30.6348 17.8143 30.3755C17.5246 30.1186 17.4974 29.6733 17.7553 29.3827C17.8738 29.249 41.9685 5.16386 45.1577 1.97584L45.1633 1.97028L45.5038 1.62984C45.229 1.78725 30.6033 13.472 15.3583 27.065L15.3554 27.0687C14.9628 27.4187 14.6087 27.7443 14.2406 28.0827L14.2406 28.0827L14.2403 28.083L14.2398 28.0834L14.239 28.0842C14.0864 28.2245 13.9313 28.367 13.7701 28.5144C14.4113 29.4931 14.7507 30.6378 14.7497 31.8228C14.7497 33.4446 14.1159 34.9993 12.9667 36.1485L10.8808 38.2344C10.8682 38.2523 10.8379 38.2842 10.7943 38.3302L10.7941 38.3304L10.7941 38.3305C10.4632 38.6797 9.36482 39.8389 9.36201 41.8044C9.36201 44.5388 11.5787 46.719 14.2838 46.7226C17.0206 46.7207 19.2036 44.5142 19.2056 41.8044C19.2044 40.3281 18.5584 38.9417 17.3784 37.9784C17.2293 37.8575 17.1346 37.6775 17.1206 37.4862C17.1056 37.295 17.1712 37.1029 17.2996 36.9604C17.6375 36.5872 17.9437 36.2363 18.2748 35.8568L18.2753 35.8562C18.3965 35.7173 18.5209 35.5747 18.6515 35.4257C18.5999 35.3882 18.5503 35.3545 18.5006 35.3216C17.5499 34.702 16.9274 33.6885 16.7934 32.542H16.7924C16.7443 32.1252 17.068 31.7563 17.4928 31.7563C17.8481 31.7563 18.1471 32.0227 18.1893 32.3769C18.3209 33.4941 19.027 33.9809 19.4322 34.2604ZM2.81329 33.8402C2.8131 30.7351 6.59732 29.137 8.81516 31.3548C10.1876 32.7268 10.1874 34.9538 8.81516 36.3257C8.12985 37.0108 7.22948 37.3535 6.32938 37.3535C5.42901 37.3535 4.52901 37.011 3.8436 36.3257C3.17919 35.6614 2.81329 34.7787 2.81329 33.8402ZM6.32938 31.7324C4.44294 31.7324 3.52063 34.0141 4.83782 35.3312C5.66029 36.1535 6.99848 36.1533 7.82094 35.3312C9.13213 34.0202 8.22126 31.7325 6.32938 31.7324ZM14.2841 38.2899C12.8383 38.2899 11.5964 39.12 11.0429 40.4563C10.4867 41.7992 10.7762 43.2683 11.7984 44.2903C12.4773 44.9691 13.3519 45.3249 14.2551 45.3249C14.7114 45.3249 15.1751 45.234 15.6241 45.048C16.966 44.4921 17.7996 43.2493 17.7996 41.8047C17.7995 39.8667 16.2225 38.2899 14.2841 38.2899ZM15.0858 43.7489C14.4568 44.0093 13.524 44.0272 12.7925 43.2959C12.0606 42.5641 12.08 41.6273 12.342 40.9944C12.602 40.3668 13.2487 39.6961 14.284 39.6961C15.447 39.6961 16.3933 40.642 16.3933 41.8047C16.3933 42.8388 15.7179 43.4871 15.0858 43.7489Z" fill="url(#paint0_linear_0_652)"/>
<defs>
<linearGradient id="paint0_linear_0_652" x1="-12.5066" y1="13.2092" x2="13.654" y2="61.2092" gradientUnits="userSpaceOnUse">
<stop stop-color="#AC6C44"/>
<stop offset="1" stop-color="#301103"/>
</linearGradient>
</defs>
</svg>
