<svg width="45" height="59" viewBox="0 0 45 59" fill="none" xmlns="http://www.w3.org/2000/svg">
<path fill-rule="evenodd" clip-rule="evenodd" d="M37.6414 23.3436C34.7854 20.341 30.9773 18.2173 26.7298 17.3385V14.7021C26.7298 14.1163 26.5101 13.5304 26.0707 13.1643C25.6313 12.7981 25.1187 12.5052 24.5328 12.5052H23.3611L23.2879 1.22739C23.2879 0.5683 22.7753 0.128906 22.1894 0.128906C21.5303 0.128906 21.0909 0.641533 21.0909 1.22739L21.1641 12.5052H19.9924C19.4066 12.5052 18.8207 12.7249 18.4545 13.1643C18.0884 13.6037 17.7955 14.1163 17.7955 14.7021V17.2653C13.3283 18.2173 9.44697 20.341 6.44444 23.3436C2.41667 27.3713 0 32.8638 0 39.0153C0 39.6744 0.512626 40.1138 1.09848 40.1138H12.8157C13.1086 42.2375 13.9874 44.1415 15.452 45.6062C17.1364 47.2905 19.4798 48.3158 22.0429 48.3158C24.6061 48.3158 26.9495 47.2905 28.6338 45.6062C30.0985 44.1415 30.9773 42.2375 31.2702 40.1138H42.9874C43.6465 40.1138 44.0859 39.6011 44.0859 39.0153C44.0859 32.937 41.596 27.3713 37.6414 23.3436ZM19.9192 14.7754H24.4596V16.9723H24.3131H23.947C23.3611 16.8991 22.702 16.8991 22.1162 16.8991C21.7256 16.8503 21.335 16.8666 20.9445 16.8828H20.9444C20.7492 16.891 20.5539 16.8991 20.3586 16.8991C20.2121 16.8991 20.0657 16.8991 19.9192 16.9723V14.7754ZM22.1162 46.0456C24.0202 46.0456 25.7778 45.3132 27.096 43.9951C28.1944 42.9698 28.8535 41.5784 29.1465 40.1138H22.1162H15.1591C15.3788 41.6516 16.1111 42.9698 17.1364 43.9951C18.3813 45.24 20.1389 46.0456 22.1162 46.0456ZM30.3182 37.8436H22.1162H13.9141H2.2702C2.56313 32.7905 4.68687 28.2501 8.05556 24.9547C11.1313 21.8789 15.1591 19.8284 19.6995 19.3158C19.7727 19.3158 19.8643 19.2975 19.9558 19.2792C20.0473 19.2609 20.1389 19.2425 20.2121 19.2425C20.798 19.1693 21.4571 19.1693 22.0429 19.1693C22.702 19.1693 23.2879 19.1693 23.947 19.2425C24.0202 19.2425 24.1117 19.2608 24.2033 19.2792C24.2948 19.2975 24.3864 19.3158 24.4596 19.3158C29 19.8284 33.0278 21.8789 36.1035 24.9547C39.4722 28.3234 41.596 32.7905 41.8889 37.8436H30.3182ZM21.0177 50.9521C21.0177 50.3663 21.4571 49.8537 22.1162 49.8537C22.7753 49.8537 23.2146 50.293 23.2146 50.9521V57.0304C23.2146 57.6163 22.7753 58.1289 22.1162 58.1289C21.5303 58.1289 21.0177 57.6895 21.0177 57.0304V50.9521ZM32.149 54.0279L29.0732 48.7552C28.7803 48.2425 28.048 48.0228 27.5354 48.3158C27.0227 48.6087 26.803 49.341 27.096 49.8537L30.1717 55.1264C30.4646 55.639 31.197 55.8587 31.7096 55.5658C32.2222 55.2728 32.4419 54.5405 32.149 54.0279ZM33.0278 43.9951L38.3005 47.0708C38.8864 47.3638 39.0328 48.0961 38.7399 48.6087C38.447 49.1946 37.7146 49.341 37.202 49.0481L31.9293 45.9723C31.3434 45.6794 31.197 44.9471 31.4899 44.4345C31.7828 43.8486 32.5152 43.7021 33.0278 43.9951ZM12.7424 44.4345C12.4495 43.9218 11.7172 43.7021 11.2045 43.9951L5.93182 47.0708C5.41919 47.3638 5.19949 48.0961 5.49242 48.6087C5.78535 49.1213 6.51768 49.341 7.0303 49.0481L12.303 45.9723C12.8157 45.6062 13.0354 44.9471 12.7424 44.4345ZM15.1591 48.7552C15.452 48.2425 16.1843 48.0228 16.697 48.3158C17.2828 48.6087 17.4293 49.341 17.1364 49.8537L14.0606 55.1264C13.7677 55.7122 13.0354 55.8587 12.5227 55.5658C11.9369 55.2728 11.7904 54.5405 12.0833 54.0279L15.1591 48.7552Z" fill="url(#paint0_linear_0_727)"/>
<defs>
<linearGradient id="paint0_linear_0_727" x1="-11.487" y1="15.9342" x2="24.1379" y2="65.6185" gradientUnits="userSpaceOnUse">
<stop stop-color="#AC6C44"/>
<stop offset="1" stop-color="#301103"/>
</linearGradient>
</defs>
</svg>
