<svg width="44" height="53" viewBox="0 0 44 53" fill="none" xmlns="http://www.w3.org/2000/svg">
<path fill-rule="evenodd" clip-rule="evenodd" d="M40.6698 18.7404C39.2284 17.291 37.3974 16.2908 35.3988 15.8611V13.5502C35.3988 6.1378 29.3899 0.128906 21.9776 0.128906C14.5652 0.128906 8.55634 6.1378 8.55634 13.5502V15.8653C4.75482 16.6985 1.71068 19.5393 0.617064 23.2742C-0.476553 27.0092 0.554586 31.0432 3.30633 33.7953L21.3957 51.8825C21.5527 52.0402 21.766 52.1289 21.9886 52.1289C22.2112 52.1289 22.4245 52.0402 22.5815 51.8825L40.6688 33.7953C44.8197 29.6355 44.8201 22.9007 40.6698 18.7404ZM10.234 13.5502C10.234 7.06435 15.4918 1.80656 21.9776 1.80656C28.4634 1.80656 33.7212 7.06435 33.7212 13.5502V15.6378C33.5293 15.6284 33.3364 15.6221 33.1434 15.6221C32.7761 15.6224 32.409 15.6413 32.0435 15.6787V13.5502C32.0435 7.99089 27.5369 3.48422 21.9776 3.48422C16.4183 3.48422 11.9117 7.99089 11.9117 13.5502V15.6766C11.5562 15.6409 11.1966 15.6221 10.8338 15.6221C10.6324 15.6221 10.4332 15.6284 10.234 15.6399V13.5502ZM30.3659 15.9869V13.5502C30.3659 8.91744 26.6103 5.16187 21.9776 5.16187C17.3449 5.16187 13.5893 8.91744 13.5893 13.5502V15.9817C15.3961 16.4628 17.0427 17.4147 18.3612 18.7404L21.9881 22.3673L25.616 18.7404C26.929 17.4201 28.5676 16.4702 30.3659 15.9869ZM39.4829 32.6094L21.9881 50.1031L4.49222 32.6094C1.0073 29.1041 1.01556 23.4399 4.51069 19.9448C8.00582 16.4496 13.67 16.4414 17.1753 19.9263L21.3957 24.1467C21.7232 24.474 22.254 24.474 22.5815 24.1467L26.8019 19.9263C29.0651 17.649 32.3731 16.7554 35.4751 17.5833C38.5771 18.4113 40.9999 20.8344 41.8273 23.9366C42.6547 27.0387 41.7606 30.3466 39.4829 32.6094ZM21.9776 26.9714C20.1723 26.9714 18.5696 28.1266 17.9987 29.8392C17.4278 31.5519 18.0169 33.4377 19.4611 34.5209V37.8762C19.4611 38.3394 19.8367 38.715 20.2999 38.715H23.6552C24.1185 38.715 24.4941 38.3394 24.4941 37.8762V34.5209C25.9383 33.4377 26.5274 31.5519 25.9565 29.8392C25.3856 28.1266 23.7829 26.9714 21.9776 26.9714ZM23.2352 33.3465C22.9762 33.4963 22.8166 33.7728 22.8164 34.0721V37.0373H21.1388V34.0721C21.1388 33.7726 20.9792 33.4959 20.72 33.346C19.7333 32.7767 19.2521 31.6156 19.5468 30.5153C19.8414 29.415 20.8385 28.6498 21.9776 28.6498C23.1167 28.6498 24.1138 29.415 24.4084 30.5153C24.7031 31.6156 24.2219 32.7767 23.2352 33.346V33.3465Z" fill="url(#paint0_linear_0_638)"/>
<defs>
<linearGradient id="paint0_linear_0_638" x1="-11.1712" y1="14.2992" x2="19.6495" y2="61.7087" gradientUnits="userSpaceOnUse">
<stop stop-color="#AC6C44"/>
<stop offset="1" stop-color="#301103"/>
</linearGradient>
</defs>
</svg>
