<svg width="51" height="52" viewBox="0 0 51 52" fill="none" xmlns="http://www.w3.org/2000/svg">
<path fill-rule="evenodd" clip-rule="evenodd" d="M21.8691 5.64137L21.3509 4.99063C20.59 4.03557 20.5889 2.70051 21.3482 1.74406C21.6902 1.31315 21.6181 0.686607 21.1872 0.344649C20.7562 0.00249067 20.1297 0.0747074 19.7877 0.505617C18.4487 2.1926 18.4507 4.54727 19.7926 6.23186L20.3108 6.88261C21.305 8.13071 21.3065 9.87537 20.3144 11.1254L19.7833 11.7945C19.4412 12.2254 19.5134 12.852 19.9443 13.194C20.1275 13.3393 20.3459 13.4099 20.5628 13.4099C20.8563 13.4099 21.1471 13.2808 21.3438 13.033L21.8749 12.3638C23.4467 10.3834 23.4444 7.61902 21.8691 5.64137ZM41.8359 20.698H50.0039C50.554 20.698 51 21.144 51 21.6941V28.8162C51 34.1072 46.6954 38.4118 41.4043 38.4118H38.5926C37.3485 40.3726 35.7863 42.1124 33.9805 43.5584H43.2304C43.7805 43.5584 44.2265 44.0043 44.2265 44.5544C44.2265 48.1795 41.2774 51.1287 37.6523 51.1287H6.57421C2.94913 51.1287 0 48.1795 0 44.5544C0 44.0043 0.44605 43.5584 0.996093 43.5584H7.85539C5.89338 41.9873 4.21796 40.07 2.92672 37.8988C1.01203 34.6796 0 30.9877 0 27.2224V18.5897C0 18.0395 0.44605 17.5936 0.996093 17.5936H8.66601C9.21605 17.5936 9.6621 18.0395 9.6621 18.5897C9.6621 19.1398 9.21605 19.5858 8.66601 19.5858H1.99219V27.2224C1.99219 33.9308 5.57384 40.1659 11.3573 43.5583H30.4787C36.2621 40.1658 39.8437 33.9308 39.8437 27.2223V19.5857H19.3242C18.7742 19.5857 18.3281 19.1397 18.3281 18.5896C18.3281 18.0394 18.7742 17.5935 19.3242 17.5935H40.8398C41.3899 17.5935 41.8359 18.0394 41.8359 18.5896V20.698ZM37.6523 49.1365C39.8368 49.1365 41.6693 47.5997 42.1253 45.5505H30.7455H11.0904H2.10126C2.55737 47.5997 4.38968 49.1365 6.57421 49.1365H37.6523ZM41.8359 27.2224V26.6746H45.0234V28.8162C45.0234 30.8117 43.3999 32.4353 41.4043 32.4353H41.1781C41.6129 30.7413 41.8359 28.99 41.8359 27.2224ZM41.4043 36.4197C45.5969 36.4197 49.0078 33.0087 49.0078 28.8162V22.6902H41.8359V24.6824H46.0195C46.5695 24.6824 47.0156 25.1283 47.0156 25.6785V28.8162C47.0156 31.9102 44.4985 34.4275 41.4043 34.4275H40.5593C40.3111 35.1051 40.027 35.7701 39.709 36.4197H41.4043ZM26.8721 7.23034L27.3904 7.88099C28.9656 9.85883 28.9679 12.6232 27.3959 14.6035L26.865 15.2726C26.6684 15.5203 26.3775 15.6495 26.0841 15.6495C25.8671 15.6495 25.6487 15.579 25.4655 15.4337C25.0346 15.0917 24.9625 14.4652 25.3045 14.0343L25.8356 13.3652C26.8277 12.1153 26.8262 10.3705 25.8321 9.12232L25.3138 8.47157C23.972 6.78688 23.97 4.43222 25.3089 2.74523C25.651 2.31432 26.2774 2.24211 26.7084 2.58426C27.1394 2.92622 27.2115 3.55277 26.8694 3.98368C26.1102 4.94012 26.1113 6.27519 26.8721 7.23034ZM16.3479 7.88109L15.8296 7.23044C15.0688 6.27539 15.0677 4.94022 15.8268 3.98378C16.1689 3.55287 16.0968 2.92632 15.6659 2.58426C15.2348 2.24221 14.6084 2.31452 14.2663 2.74523C12.9275 4.43222 12.9295 6.78698 14.2713 8.47157L14.7896 9.12232C15.7837 10.3705 15.7852 12.1153 14.7932 13.3651L14.2621 14.0342C13.92 14.4651 13.992 15.0916 14.4229 15.4337C14.6061 15.579 14.8245 15.6496 15.0415 15.6496C15.335 15.6496 15.6257 15.5205 15.8223 15.2728L16.3536 14.6036C17.9254 12.6233 17.9231 9.85893 16.3479 7.88109ZM14.265 17.5932C14.527 17.5932 14.784 17.6998 14.9693 17.885C15.1555 18.0703 15.2611 18.3273 15.2611 18.5893C15.2611 18.8523 15.1555 19.1083 14.9693 19.2945C14.784 19.4798 14.527 19.5854 14.265 19.5854C14.0031 19.5854 13.7461 19.4798 13.5608 19.2945C13.3755 19.1083 13.269 18.8513 13.269 18.5893C13.269 18.3273 13.3756 18.0713 13.5608 17.885C13.7461 17.6998 14.0031 17.5932 14.265 17.5932ZM36.0586 26.2263C35.5085 26.2263 35.0625 26.6723 35.0625 27.2224C35.0625 30.9198 33.5628 34.5535 30.9478 37.1916C30.5605 37.5823 30.5634 38.213 30.9541 38.6003C31.1483 38.7928 31.4018 38.889 31.6553 38.889C31.9117 38.8889 32.1681 38.7905 32.3629 38.5939C35.3446 35.5857 37.0547 31.441 37.0547 27.2224C37.0547 26.6723 36.6086 26.2263 36.0586 26.2263ZM27.9167 39.517C28.3958 39.2468 29.0033 39.416 29.2737 39.8952C29.5439 40.3743 29.3747 40.9819 28.8955 41.2522L28.8728 41.265C28.7182 41.3522 28.55 41.3937 28.3843 41.3937C28.0364 41.3937 27.6989 41.2114 27.5158 40.8868C27.2455 40.4077 27.4148 39.8002 27.894 39.5299L27.9167 39.517Z" fill="url(#paint0_linear_0_667)"/>
<defs>
<linearGradient id="paint0_linear_0_667" x1="-13.2885" y1="14.0265" x2="14.5071" y2="65.0264" gradientUnits="userSpaceOnUse">
<stop stop-color="#AC6C44"/>
<stop offset="1" stop-color="#301103"/>
</linearGradient>
</defs>
</svg>
