<svg width="493" height="572" viewBox="0 0 493 572" fill="none" xmlns="http://www.w3.org/2000/svg">
<path d="M293 154L395.5 6" stroke="white" stroke-dasharray="3"/>
<circle cx="292.5" cy="154.5" r="4.5" fill="white"/>
<g clip-path="url(#clip0_0_1736)">
<rect x="391" y="1" width="101" height="35.375" rx="17.6875" fill="#F4DDD9" stroke="url(#paint0_linear_0_1736)" stroke-width="2"/>
<path d="M419.324 19.5039C419.324 18.5742 418.996 17.7676 418.346 17.0908C417.697 16.4141 416.952 16.0723 416.104 16.0723C415.844 16.0723 415.585 16.1133 415.332 16.1885C415.079 16.2637 414.874 16.3457 414.71 16.4414C414.546 16.5371 414.395 16.6396 414.252 16.7627C414.101 16.8857 414.005 16.9678 413.958 17.0156C413.91 17.0635 413.876 17.1045 413.862 17.1318C413.93 16.4072 414.156 15.833 414.552 15.4092C414.942 14.9785 415.462 14.7119 416.104 14.6094C416.849 14.4863 417.464 14.3359 417.95 14.1582C418.435 13.9805 418.722 13.8574 418.804 13.7891C418.886 13.7207 418.948 13.666 418.975 13.6318L418.346 12.5791L418.121 12.7158C417.97 12.7979 417.697 12.9072 417.3 13.0371C416.904 13.1602 416.46 13.2695 415.961 13.3516C414.839 13.5361 413.978 14.0352 413.37 14.8555C412.768 15.6689 412.461 16.8926 412.461 18.5264C412.461 19.9551 412.782 21.0488 413.424 21.8008C414.067 22.5527 414.908 22.9287 415.961 22.9287C416.877 22.9287 417.663 22.5938 418.326 21.9238C418.989 21.2539 419.324 20.4473 419.324 19.5039ZM413.999 19.5039C413.999 18.8887 414.197 18.376 414.58 17.959C414.969 17.542 415.427 17.3301 415.961 17.3301C416.494 17.3301 416.952 17.542 417.341 17.959C417.724 18.376 417.922 18.8887 417.922 19.5039C417.922 20.1191 417.724 20.6387 417.341 21.0488C416.952 21.4658 416.494 21.6709 415.961 21.6709C415.427 21.6709 414.969 21.4658 414.58 21.0488C414.197 20.6387 413.999 20.1191 413.999 19.5039ZM425.034 22.9287C425.922 22.9287 426.688 22.5938 427.344 21.9102C428 21.2266 428.329 20.3994 428.329 19.4287C428.329 18.458 428 17.6377 427.344 16.9541C426.688 16.2705 425.922 15.9287 425.034 15.9287C424.637 15.9287 424.254 16.0176 423.878 16.1816C423.496 16.3525 423.25 16.4893 423.133 16.5918C423.017 16.7012 422.928 16.7832 422.867 16.8447V16.0723H421.465V25.7314H422.867V22.0195L422.962 22.1221C423.017 22.1768 423.113 22.252 423.243 22.3477C423.373 22.4434 423.523 22.5322 423.694 22.6211C423.858 22.71 424.063 22.7852 424.302 22.8398C424.535 22.9014 424.781 22.9287 425.034 22.9287ZM424.897 17.1934C425.43 17.1934 425.902 17.4121 426.312 17.8496C426.722 18.2871 426.927 18.8203 426.927 19.4355C426.927 20.0508 426.722 20.5771 426.312 21.0146C425.902 21.4521 425.43 21.6709 424.897 21.6709C424.364 21.6709 423.892 21.4521 423.482 21.0146C423.072 20.5771 422.867 20.0508 422.867 19.4355C422.867 18.8203 423.072 18.2871 423.482 17.8496C423.892 17.4121 424.364 17.1934 424.897 17.1934ZM435.508 19.4355C435.508 20.0645 435.296 20.5908 434.886 21.0215C434.469 21.459 433.977 21.6709 433.41 21.6709C432.835 21.6709 432.343 21.459 431.926 21.0215C431.509 20.5908 431.304 20.0645 431.304 19.4355C431.304 18.8066 431.509 18.2803 431.926 17.8428C432.343 17.4121 432.835 17.1934 433.41 17.1934C433.977 17.1934 434.469 17.4121 434.886 17.8428C435.296 18.2803 435.508 18.8066 435.508 19.4355ZM429.91 19.4355C429.91 20.3789 430.251 21.1924 430.949 21.8896C431.646 22.5869 432.466 22.9355 433.41 22.9355C434.353 22.9355 435.166 22.5869 435.864 21.8896C436.561 21.1924 436.91 20.3789 436.91 19.4355C436.91 18.4922 436.561 17.6719 435.864 16.9746C435.166 16.2773 434.353 15.9287 433.41 15.9287C432.466 15.9287 431.646 16.2773 430.949 16.9746C430.251 17.6719 429.91 18.4922 429.91 19.4355ZM438.914 16.0723V22.792H442.278C442.989 22.792 443.556 22.6143 443.966 22.2451C444.376 21.8828 444.588 21.4111 444.588 20.8301C444.588 20.6113 444.547 20.3994 444.465 20.208C444.383 20.0166 444.294 19.8662 444.198 19.7568C444.103 19.6475 443.987 19.5449 443.857 19.4492C443.72 19.3535 443.631 19.2988 443.583 19.2715C443.529 19.251 443.494 19.2373 443.467 19.2305L443.658 19.1006C443.788 19.0049 443.918 18.8408 444.041 18.6084C444.164 18.376 444.233 18.1162 444.233 17.8291C444.233 17.3232 444.041 16.8994 443.665 16.5713C443.282 16.2432 442.777 16.0791 442.134 16.0791L438.914 16.0723ZM442.278 19.791C442.544 19.791 442.763 19.8799 442.934 20.0576C443.098 20.2354 443.187 20.4473 443.187 20.7002C443.187 20.9736 443.105 21.1992 442.941 21.3633C442.777 21.5273 442.551 21.6094 442.278 21.6094H440.316V19.791H442.278ZM442.838 17.9658C442.838 18.1846 442.77 18.3555 442.647 18.4785C442.517 18.6016 442.346 18.6699 442.134 18.6699H440.316V17.2686H442.134C442.346 17.2686 442.517 17.3301 442.647 17.4531C442.77 17.5762 442.838 17.7471 442.838 17.9658ZM451.487 16.0723L447.987 20.4814V16.0723H446.586V22.792H447.844L451.344 18.3828V22.792H452.745V16.0723H451.487ZM454.757 19.4355C454.757 20.3789 455.099 21.1924 455.796 21.8896C456.493 22.5869 457.313 22.9355 458.257 22.9355C458.578 22.9355 458.899 22.8809 459.221 22.7783C459.535 22.6758 459.795 22.5664 460 22.4434C460.198 22.3203 460.39 22.1836 460.574 22.0264C460.752 21.8691 460.875 21.7598 460.93 21.6914C460.984 21.623 461.025 21.5752 461.053 21.541L460.144 20.6318L459.932 20.8916C459.795 21.0557 459.569 21.2334 459.255 21.4111C458.94 21.5889 458.612 21.6777 458.257 21.6777C457.683 21.6777 457.19 21.459 456.773 21.0283C456.356 20.5908 456.151 20.0645 456.151 19.4355C456.151 18.8066 456.356 18.2803 456.773 17.8496C457.19 17.4121 457.683 17.2002 458.257 17.2002C458.612 17.2002 458.94 17.2891 459.255 17.4736C459.569 17.6514 459.768 17.7949 459.863 17.9043C459.959 18.0137 460.027 18.1025 460.075 18.1777L460.984 17.2686L460.69 16.9473C460.492 16.7217 460.171 16.4961 459.72 16.2705C459.269 16.0449 458.776 15.9355 458.257 15.9355C457.313 15.9355 456.493 16.2842 455.796 16.9814C455.099 17.6787 454.757 18.4922 454.757 19.4355ZM462.217 17.3301H464.527V22.792H465.922V17.3301H468.232V16.0723H462.217V17.3301Z" fill="#363348"/>
</g>
<circle cx="292.5" cy="154.5" r="2.5" fill="#C5988F"/>
<path d="M356 433L276 318" stroke="white" stroke-dasharray="3"/>
<circle cx="275.5" cy="317.5" r="4.5" fill="white"/>
<g clip-path="url(#clip1_0_1736)">
<rect x="351" y="402" width="122" height="35.2667" rx="17.6333" fill="#F4DDD9" stroke="url(#paint1_linear_0_1736)" stroke-width="2"/>
<path d="M378.613 417.125H376.932L374.061 420.133V417.125H372.659V423.845H374.061V421.958L375.113 420.837L377.28 423.845H378.818L376.022 419.928L378.613 417.125ZM385.294 420.488C385.294 421.117 385.082 421.644 384.672 422.074C384.255 422.512 383.763 422.724 383.195 422.724C382.621 422.724 382.129 422.512 381.712 422.074C381.295 421.644 381.09 421.117 381.09 420.488C381.09 419.859 381.295 419.333 381.712 418.896C382.129 418.465 382.621 418.246 383.195 418.246C383.763 418.246 384.255 418.465 384.672 418.896C385.082 419.333 385.294 419.859 385.294 420.488ZM379.695 420.488C379.695 421.432 380.037 422.245 380.734 422.942C381.432 423.64 382.252 423.988 383.195 423.988C384.139 423.988 384.952 423.64 385.649 422.942C386.347 422.245 386.695 421.432 386.695 420.488C386.695 419.545 386.347 418.725 385.649 418.027C384.952 417.33 384.139 416.981 383.195 416.981C382.252 416.981 381.432 417.33 380.734 418.027C380.037 418.725 379.695 419.545 379.695 420.488ZM388.283 420.488C388.283 421.432 388.625 422.245 389.322 422.942C390.019 423.64 390.84 423.988 391.783 423.988C392.104 423.988 392.426 423.934 392.747 423.831C393.061 423.729 393.321 423.619 393.526 423.496C393.724 423.373 393.916 423.236 394.1 423.079C394.278 422.922 394.401 422.812 394.456 422.744C394.51 422.676 394.551 422.628 394.579 422.594L393.67 421.685L393.458 421.944C393.321 422.108 393.095 422.286 392.781 422.464C392.467 422.642 392.138 422.73 391.783 422.73C391.209 422.73 390.717 422.512 390.3 422.081C389.883 421.644 389.677 421.117 389.677 420.488C389.677 419.859 389.883 419.333 390.3 418.902C390.717 418.465 391.209 418.253 391.783 418.253C392.138 418.253 392.467 418.342 392.781 418.526C393.095 418.704 393.294 418.848 393.389 418.957C393.485 419.066 393.553 419.155 393.601 419.23L394.51 418.321L394.217 418C394.018 417.774 393.697 417.549 393.246 417.323C392.795 417.098 392.302 416.988 391.783 416.988C390.84 416.988 390.019 417.337 389.322 418.034C388.625 418.731 388.283 419.545 388.283 420.488ZM400.008 420.064L397.561 417.125H396.44V423.845H397.841V419.436L400.008 422.026L402.182 419.436V423.845H403.584V417.125H402.462L400.008 420.064ZM412.24 420.974L412.315 420.276C412.315 419.333 412 418.554 411.372 417.925C410.743 417.296 409.963 416.981 409.02 416.981C408.077 416.981 407.27 417.323 406.6 417.993C405.93 418.663 405.588 419.47 405.588 420.413C405.588 421.397 405.937 422.238 406.627 422.936C407.318 423.633 408.138 423.981 409.088 423.981C409.444 423.981 409.792 423.934 410.127 423.831C410.462 423.729 410.736 423.619 410.941 423.496C411.153 423.373 411.351 423.236 411.536 423.079C411.727 422.922 411.85 422.812 411.905 422.744C411.959 422.676 412 422.628 412.028 422.587L411.119 421.678L410.907 421.938C410.77 422.108 410.531 422.279 410.189 422.457C409.847 422.635 409.485 422.724 409.088 422.724C408.548 422.724 408.083 422.553 407.687 422.204C407.29 421.862 407.058 421.452 406.983 420.974H412.24ZM409.013 418.178C409.533 418.178 409.957 418.328 410.298 418.629C410.64 418.93 410.852 419.312 410.934 419.784H407.044C407.167 419.312 407.4 418.93 407.742 418.629C408.083 418.328 408.507 418.178 409.013 418.178ZM413.616 418.383H415.926V423.845H417.321V418.383H419.631V417.125H413.616V418.383ZM426.537 420.488C426.537 421.117 426.325 421.644 425.915 422.074C425.498 422.512 425.006 422.724 424.439 422.724C423.864 422.724 423.372 422.512 422.955 422.074C422.538 421.644 422.333 421.117 422.333 420.488C422.333 419.859 422.538 419.333 422.955 418.896C423.372 418.465 423.864 418.246 424.439 418.246C425.006 418.246 425.498 418.465 425.915 418.896C426.325 419.333 426.537 419.859 426.537 420.488ZM420.939 420.488C420.939 421.432 421.28 422.245 421.978 422.942C422.675 423.64 423.495 423.988 424.439 423.988C425.382 423.988 426.196 423.64 426.893 422.942C427.59 422.245 427.939 421.432 427.939 420.488C427.939 419.545 427.59 418.725 426.893 418.027C426.196 417.33 425.382 416.981 424.439 416.981C423.495 416.981 422.675 417.33 421.978 418.027C421.28 418.725 420.939 419.545 420.939 420.488ZM430.716 417.125V419.087C430.716 420.051 430.654 420.796 430.545 421.329C430.436 421.862 430.292 422.204 430.128 422.361C429.964 422.512 429.738 422.594 429.451 422.594C429.315 422.587 429.15 422.56 428.966 422.519V423.852L429.089 423.879C429.164 423.906 429.274 423.927 429.41 423.954C429.547 423.975 429.684 423.988 429.807 423.988C430.306 423.988 430.716 423.858 431.03 423.612C431.345 423.359 431.605 422.86 431.81 422.122C432.015 421.384 432.11 420.372 432.11 419.094V418.39H434.489V423.852H435.891V417.132L430.716 417.125ZM443.508 420.488C443.508 421.117 443.296 421.644 442.886 422.074C442.469 422.512 441.976 422.724 441.409 422.724C440.835 422.724 440.343 422.512 439.926 422.074C439.509 421.644 439.304 421.117 439.304 420.488C439.304 419.859 439.509 419.333 439.926 418.896C440.343 418.465 440.835 418.246 441.409 418.246C441.976 418.246 442.469 418.465 442.886 418.896C443.296 419.333 443.508 419.859 443.508 420.488ZM437.909 420.488C437.909 421.432 438.251 422.245 438.948 422.942C439.645 423.64 440.466 423.988 441.409 423.988C442.352 423.988 443.166 423.64 443.863 422.942C444.56 422.245 444.909 421.432 444.909 420.488C444.909 419.545 444.56 418.725 443.863 418.027C443.166 417.33 442.352 416.981 441.409 416.981C440.466 416.981 439.645 417.33 438.948 418.027C438.251 418.725 437.909 419.545 437.909 420.488ZM451.603 417.125H446.914V423.845H448.315V418.383H451.603V417.125Z" fill="#363348"/>
</g>
<circle cx="275.5" cy="317.5" r="2.5" fill="#C5988F"/>
<circle cx="177.5" cy="181.5" r="4.5" fill="white"/>
<path d="M178 183L121 83" stroke="white" stroke-dasharray="3"/>
<circle cx="177.5" cy="181.5" r="2.5" fill="#C5988F"/>
<g clip-path="url(#clip2_0_1736)">
<rect x="1" y="65" width="119" height="35.1541" rx="17.577" fill="#EDD5D0" stroke="url(#paint2_linear_0_1736)" stroke-width="2"/>
<path d="M23.4788 80.1797V82.1416C23.4788 83.1055 23.4172 83.8506 23.3079 84.3838C23.1985 84.917 23.0549 85.2588 22.8909 85.416C22.7268 85.5664 22.5012 85.6484 22.2141 85.6484C22.0774 85.6416 21.9133 85.6143 21.7288 85.5732V86.9062L21.8518 86.9336C21.927 86.9609 22.0364 86.9814 22.1731 87.0088C22.3098 87.0293 22.4465 87.043 22.5696 87.043C23.0686 87.043 23.4788 86.9131 23.7932 86.667C24.1077 86.4141 24.3674 85.915 24.5725 85.1768C24.7776 84.4385 24.8733 83.4268 24.8733 82.1484V81.4443H27.2522V86.9062H28.6536V80.1865L23.4788 80.1797ZM36.8312 83.543C36.8312 82.5996 36.4825 81.7793 35.7853 81.082C35.088 80.3848 34.2745 80.0361 33.3312 80.0361C33.003 80.0361 32.6818 80.0908 32.3673 80.1865C32.0528 80.2822 31.7999 80.3916 31.6017 80.5078C31.4103 80.6309 31.2257 80.7607 31.048 80.9111C30.8771 81.0615 30.7677 81.1641 30.713 81.2256C30.6583 81.2871 30.6173 81.335 30.59 81.3691L31.506 82.2783L31.6837 82.0254C31.8204 81.8682 32.0392 81.7109 32.34 81.5469C32.6407 81.3828 32.9689 81.3008 33.3243 81.3008C33.6114 81.3008 33.878 81.3623 34.1241 81.4717C34.3702 81.5811 34.5548 81.7041 34.6847 81.8408C34.8146 81.9775 34.9308 82.1279 35.0333 82.3057C35.1359 82.4834 35.2042 82.6133 35.2316 82.6816C35.2589 82.75 35.2794 82.8047 35.2862 82.8389H32.2716V84.0283H35.3546L35.2999 84.2129C35.2726 84.3359 35.2111 84.4795 35.1153 84.6504C35.0196 84.8281 34.9034 84.999 34.7667 85.1631C34.63 85.334 34.4318 85.4775 34.1788 85.6006C33.9327 85.7236 33.6456 85.7783 33.3243 85.7783C33.1056 85.7783 32.8868 85.7441 32.6681 85.6689C32.4493 85.5938 32.2784 85.5117 32.1417 85.416C32.005 85.3203 31.8819 85.2178 31.7589 85.0947C31.6359 84.9717 31.5607 84.8896 31.5196 84.8418C31.4786 84.8008 31.4513 84.7598 31.4308 84.7324L30.5216 85.6416L30.6515 85.7783C30.7267 85.8877 30.8497 86.0039 31.0138 86.1406C31.1847 86.2773 31.3761 86.4072 31.5812 86.5439C31.7931 86.6807 32.0528 86.7969 32.3673 86.8926C32.6818 86.9883 32.9962 87.0361 33.3243 87.0361C34.2677 87.0361 35.088 86.6943 35.7853 85.9971C36.4825 85.2998 36.8312 84.4863 36.8312 83.543ZM38.8291 86.8994H47.9277V80.1797H46.5332V85.6416H44.0791V80.1797H42.6777V85.6416H40.2305V80.1797H38.8291V86.8994ZM53.9247 83.1191L51.4774 80.1797H50.3563V86.8994H51.7577V82.4902L53.9247 85.0811L56.0985 82.4902V86.8994H57.4999V80.1797H56.3788L53.9247 83.1191ZM66.156 84.0283L66.2312 83.3311C66.2312 82.3877 65.9167 81.6084 65.2878 80.9795C64.6589 80.3506 63.8796 80.0361 62.9362 80.0361C61.9929 80.0361 61.1862 80.3779 60.5163 81.0479C59.8464 81.7178 59.5046 82.5244 59.5046 83.4678C59.5046 84.4521 59.8532 85.293 60.5437 85.9902C61.2341 86.6875 62.0544 87.0361 63.0046 87.0361C63.3601 87.0361 63.7087 86.9883 64.0437 86.8857C64.3786 86.7832 64.6521 86.6738 64.8571 86.5508C65.0691 86.4277 65.2673 86.291 65.4519 86.1338C65.6433 85.9766 65.7663 85.8672 65.821 85.7988C65.8757 85.7305 65.9167 85.6826 65.9441 85.6416L65.0349 84.7324L64.823 84.9922C64.6862 85.1631 64.447 85.334 64.1052 85.5117C63.7634 85.6895 63.4011 85.7783 63.0046 85.7783C62.4646 85.7783 61.9997 85.6074 61.6032 85.2588C61.2068 84.917 60.9743 84.5068 60.8991 84.0283H66.156ZM62.9294 81.2324C63.4489 81.2324 63.8728 81.3828 64.2146 81.6836C64.5564 81.9844 64.7683 82.3672 64.8503 82.8389H60.9607C61.0837 82.3672 61.3161 81.9844 61.6579 81.6836C61.9997 81.3828 62.4235 81.2324 62.9294 81.2324ZM73.1305 80.1797L69.6305 84.5889V80.1797H68.2291V86.8994H69.4869L72.9869 82.4902V86.8994H74.3883V80.1797H73.1305ZM71.3053 78.0811C71.025 78.0811 70.7926 77.9922 70.608 77.8008C70.4166 77.6094 70.3277 77.377 70.3277 77.0967H69.2818C69.2818 77.6572 69.4732 78.1289 69.856 78.498C70.2388 78.874 70.7242 79.0586 71.3121 79.0586C71.9 79.0586 72.3853 78.874 72.7681 78.498C73.151 78.1289 73.3424 77.6572 73.3424 77.0967H72.2896C72.2896 77.3838 72.1939 77.6162 72.0094 77.8008C71.818 77.9922 71.5855 78.0811 71.3053 78.0811ZM82.7709 80.1797H81.0893L78.2182 83.1875V80.1797H76.8168V86.8994H78.2182V85.0127L79.2709 83.8916L81.4379 86.8994H82.976L80.1801 82.9824L82.7709 80.1797ZM90.4974 84.0283L90.5726 83.3311C90.5726 82.3877 90.2581 81.6084 89.6292 80.9795C89.0003 80.3506 88.221 80.0361 87.2777 80.0361C86.3343 80.0361 85.5277 80.3779 84.8577 81.0479C84.1878 81.7178 83.846 82.5244 83.846 83.4678C83.846 84.4521 84.1946 85.293 84.8851 85.9902C85.5755 86.6875 86.3958 87.0361 87.346 87.0361C87.7015 87.0361 88.0501 86.9883 88.3851 86.8857C88.72 86.7832 88.9935 86.6738 89.1986 86.5508C89.4105 86.4277 89.6087 86.291 89.7933 86.1338C89.9847 85.9766 90.1077 85.8672 90.1624 85.7988C90.2171 85.7305 90.2581 85.6826 90.2855 85.6416L89.3763 84.7324L89.1644 84.9922C89.0277 85.1631 88.7884 85.334 88.4466 85.5117C88.1048 85.6895 87.7425 85.7783 87.346 85.7783C86.806 85.7783 86.3411 85.6074 85.9446 85.2588C85.5482 84.917 85.3157 84.5068 85.2405 84.0283H90.4974ZM87.2708 81.2324C87.7903 81.2324 88.2142 81.3828 88.556 81.6836C88.8978 81.9844 89.1097 82.3672 89.1917 82.8389H85.3021C85.4251 82.3672 85.6575 81.9844 85.9993 81.6836C86.3411 81.3828 86.765 81.2324 87.2708 81.2324ZM96.1388 87.0361C97.0275 87.0361 97.7931 86.7012 98.4494 86.0176C99.1056 85.334 99.4338 84.5068 99.4338 83.5361C99.4338 82.5654 99.1056 81.7451 98.4494 81.0615C97.7931 80.3779 97.0275 80.0361 96.1388 80.0361C95.7424 80.0361 95.3596 80.125 94.9836 80.2891C94.6008 80.46 94.3547 80.5967 94.2385 80.6992C94.1222 80.8086 94.0334 80.8906 93.9719 80.9521V80.1797H92.5705V89.8389H93.9719V86.127L94.0676 86.2295C94.1222 86.2842 94.2179 86.3594 94.3478 86.4551C94.4777 86.5508 94.6281 86.6396 94.799 86.7285C94.9631 86.8174 95.1681 86.8926 95.4074 86.9473C95.6398 87.0088 95.8859 87.0361 96.1388 87.0361ZM96.0021 81.3008C96.5353 81.3008 97.007 81.5195 97.4172 81.957C97.8273 82.3945 98.0324 82.9277 98.0324 83.543C98.0324 84.1582 97.8273 84.6846 97.4172 85.1221C97.007 85.5596 96.5353 85.7783 96.0021 85.7783C95.4689 85.7783 94.9972 85.5596 94.5871 85.1221C94.1769 84.6846 93.9719 84.1582 93.9719 83.543C93.9719 82.9277 94.1769 82.3945 94.5871 81.957C94.9972 81.5195 95.4689 81.3008 96.0021 81.3008Z" fill="#363348"/>
</g>
<circle cx="245.5" cy="433.5" r="4.5" fill="white"/>
<path d="M144.5 562.5L245.5 433.5" stroke="white" stroke-dasharray="3"/>
<g clip-path="url(#clip3_0_1736)">
<rect x="29" y="535" width="119" height="35.1541" rx="17.577" fill="#F4DDD9" stroke="url(#paint3_linear_0_1736)" stroke-width="2"/>
<path d="M54.2747 552.119L51.8274 549.18H50.7063V555.899H52.1077V551.49L54.2747 554.081L56.4485 551.49V555.899H57.8499V549.18H56.7288L54.2747 552.119ZM65.672 555.899V551.559C65.672 550.848 65.4054 550.253 64.8859 549.768C64.3595 549.282 63.6896 549.036 62.8693 549.036C62.5411 549.036 62.2198 549.084 61.9122 549.173C61.6046 549.262 61.3585 549.364 61.1739 549.474C60.9825 549.59 60.8048 549.72 60.6407 549.863C60.4767 550.007 60.3673 550.109 60.3194 550.164C60.2716 550.219 60.2374 550.267 60.2101 550.301L61.1193 551.21L61.3038 550.971C61.4132 550.82 61.6114 550.677 61.8986 550.526C62.1857 550.376 62.5138 550.301 62.8693 550.301C63.2794 550.301 63.6144 550.424 63.8741 550.663C64.1339 550.909 64.2706 551.203 64.2706 551.559L61.8165 551.982C61.2081 552.085 60.7296 552.324 60.381 552.693C60.0323 553.069 59.8614 553.534 59.8614 554.088C59.8614 554.594 60.087 555.052 60.5382 555.448C60.9894 555.845 61.5568 556.043 62.2403 556.043C62.4728 556.043 62.6984 556.009 62.9308 555.954C63.1564 555.893 63.3478 555.824 63.4982 555.749C63.6486 555.674 63.7853 555.592 63.9152 555.496C64.045 555.4 64.1339 555.339 64.1749 555.298C64.2159 555.257 64.2501 555.223 64.2706 555.209V555.906L65.672 555.899ZM62.4523 554.785C62.0831 554.785 61.796 554.696 61.5773 554.532C61.3585 554.361 61.256 554.163 61.256 553.938C61.256 553.698 61.3312 553.5 61.4884 553.343C61.6388 553.179 61.8439 553.076 62.0968 553.035L64.2706 552.687V552.823C64.2706 553.452 64.1066 553.931 63.7853 554.272C63.464 554.614 63.0196 554.785 62.4523 554.785ZM67.6836 552.543C67.6836 553.486 68.0254 554.3 68.7226 554.997C69.4199 555.694 70.2402 556.043 71.1836 556.043C71.5049 556.043 71.8262 555.988 72.1474 555.886C72.4619 555.783 72.7217 555.674 72.9267 555.551C73.125 555.428 73.3164 555.291 73.501 555.134C73.6787 554.977 73.8017 554.867 73.8564 554.799C73.9111 554.73 73.9521 554.683 73.9795 554.648L73.0703 553.739L72.8584 553.999C72.7217 554.163 72.4961 554.341 72.1816 554.519C71.8672 554.696 71.539 554.785 71.1836 554.785C70.6094 554.785 70.1172 554.566 69.7002 554.136C69.2832 553.698 69.0781 553.172 69.0781 552.543C69.0781 551.914 69.2832 551.388 69.7002 550.957C70.1172 550.52 70.6094 550.308 71.1836 550.308C71.539 550.308 71.8672 550.396 72.1816 550.581C72.4961 550.759 72.6943 550.902 72.79 551.012C72.8857 551.121 72.9541 551.21 73.0019 551.285L73.9111 550.376L73.6172 550.055C73.4189 549.829 73.0976 549.604 72.6465 549.378C72.1953 549.152 71.7031 549.043 71.1836 549.043C70.2402 549.043 69.4199 549.392 68.7226 550.089C68.0254 550.786 67.6836 551.6 67.6836 552.543ZM75.1366 552.543C75.1366 553.486 75.4784 554.3 76.1756 554.997C76.8729 555.694 77.6932 556.043 78.6366 556.043C78.9579 556.043 79.2792 555.988 79.6004 555.886C79.9149 555.783 80.1747 555.674 80.3797 555.551C80.578 555.428 80.7694 555.291 80.954 555.134C81.1317 554.977 81.2547 554.867 81.3094 554.799C81.3641 554.73 81.4051 554.683 81.4325 554.648L80.5233 553.739L80.3114 553.999C80.1747 554.163 79.9491 554.341 79.6346 554.519C79.3202 554.696 78.992 554.785 78.6366 554.785C78.0624 554.785 77.5702 554.566 77.1532 554.136C76.7362 553.698 76.5311 553.172 76.5311 552.543C76.5311 551.914 76.7362 551.388 77.1532 550.957C77.5702 550.52 78.0624 550.308 78.6366 550.308C78.992 550.308 79.3202 550.396 79.6346 550.581C79.9491 550.759 80.1473 550.902 80.243 551.012C80.3387 551.121 80.4071 551.21 80.4549 551.285L81.3641 550.376L81.0702 550.055C80.8719 549.829 80.5506 549.604 80.0995 549.378C79.6483 549.152 79.1561 549.043 78.6366 549.043C77.6932 549.043 76.8729 549.392 76.1756 550.089C75.4784 550.786 75.1366 551.6 75.1366 552.543ZM88.6872 555.899V551.559C88.6872 550.848 88.4206 550.253 87.9011 549.768C87.3747 549.282 86.7048 549.036 85.8845 549.036C85.5564 549.036 85.2351 549.084 84.9275 549.173C84.6198 549.262 84.3737 549.364 84.1892 549.474C83.9978 549.59 83.82 549.72 83.656 549.863C83.4919 550.007 83.3825 550.109 83.3347 550.164C83.2868 550.219 83.2527 550.267 83.2253 550.301L84.1345 551.21L84.3191 550.971C84.4284 550.82 84.6267 550.677 84.9138 550.526C85.2009 550.376 85.529 550.301 85.8845 550.301C86.2946 550.301 86.6296 550.424 86.8894 550.663C87.1491 550.909 87.2859 551.203 87.2859 551.559L84.8318 551.982C84.2234 552.085 83.7448 552.324 83.3962 552.693C83.0476 553.069 82.8767 553.534 82.8767 554.088C82.8767 554.594 83.1023 555.052 83.5534 555.448C84.0046 555.845 84.572 556.043 85.2556 556.043C85.488 556.043 85.7136 556.009 85.946 555.954C86.1716 555.893 86.363 555.824 86.5134 555.749C86.6638 555.674 86.8005 555.592 86.9304 555.496C87.0603 555.4 87.1491 555.339 87.1902 555.298C87.2312 555.257 87.2653 555.223 87.2859 555.209V555.906L88.6872 555.899ZM85.4675 554.785C85.0984 554.785 84.8112 554.696 84.5925 554.532C84.3737 554.361 84.2712 554.163 84.2712 553.938C84.2712 553.698 84.3464 553.5 84.5036 553.343C84.654 553.179 84.8591 553.076 85.112 553.035L87.2859 552.687V552.823C87.2859 553.452 87.1218 553.931 86.8005 554.272C86.4792 554.614 86.0349 554.785 85.4675 554.785ZM96.1539 551.907V549.18H94.7594V551.907L92.1685 549.18H90.4869L93.0777 551.982L90.275 555.899H91.8199L93.9869 552.892L94.7594 553.732V555.899H96.1539V553.732L96.9263 552.892L99.0933 555.899H100.638L97.8355 551.982L100.426 549.18H98.7447L96.1539 551.907ZM107.121 549.18L103.621 553.589V549.18H102.219V555.899H103.477L106.977 551.49V555.899H108.378V549.18H107.121ZM110.39 552.543C110.39 553.486 110.732 554.3 111.429 554.997C112.126 555.694 112.947 556.043 113.89 556.043C114.211 556.043 114.533 555.988 114.854 555.886C115.168 555.783 115.428 555.674 115.633 555.551C115.831 555.428 116.023 555.291 116.207 555.134C116.385 554.977 116.508 554.867 116.563 554.799C116.617 554.73 116.659 554.683 116.686 554.648L115.777 553.739L115.565 553.999C115.428 554.163 115.202 554.341 114.888 554.519C114.574 554.696 114.245 554.785 113.89 554.785C113.316 554.785 112.824 554.566 112.407 554.136C111.99 553.698 111.784 553.172 111.784 552.543C111.784 551.914 111.99 551.388 112.407 550.957C112.824 550.52 113.316 550.308 113.89 550.308C114.245 550.308 114.574 550.396 114.888 550.581C115.202 550.759 115.401 550.902 115.496 551.012C115.592 551.121 115.66 551.21 115.708 551.285L116.617 550.376L116.324 550.055C116.125 549.829 115.804 549.604 115.353 549.378C114.902 549.152 114.409 549.043 113.89 549.043C112.947 549.043 112.126 549.392 111.429 550.089C110.732 550.786 110.39 551.6 110.39 552.543ZM117.85 550.438H120.16V555.899H121.555V550.438H123.865V549.18H117.85V550.438Z" fill="#363348"/>
</g>
<circle cx="245.5" cy="433.5" r="2.5" fill="#C5988F"/>
<defs>
<linearGradient id="paint0_linear_0_1736" x1="441.307" y1="52.4877" x2="465.736" y2="1.40194" gradientUnits="userSpaceOnUse">
<stop stop-color="#F5D6BF"/>
<stop offset="1" stop-color="#C68B61"/>
</linearGradient>
<linearGradient id="paint1_linear_0_1736" x1="411.767" y1="453.336" x2="433.194" y2="399.236" gradientUnits="userSpaceOnUse">
<stop stop-color="#F5D6BF"/>
<stop offset="1" stop-color="#C68B61"/>
</linearGradient>
<linearGradient id="paint2_linear_0_1736" x1="60.273" y1="116.177" x2="81.9695" y2="62.5603" gradientUnits="userSpaceOnUse">
<stop stop-color="#F5D6BF"/>
<stop offset="1" stop-color="#C68B61"/>
</linearGradient>
<linearGradient id="paint3_linear_0_1736" x1="88.273" y1="586.177" x2="109.969" y2="532.56" gradientUnits="userSpaceOnUse">
<stop stop-color="#F5D6BF"/>
<stop offset="1" stop-color="#C68B61"/>
</linearGradient>
<clipPath id="clip0_0_1736">
<rect width="103" height="37.375" fill="white" transform="translate(390)"/>
</clipPath>
<clipPath id="clip1_0_1736">
<rect width="124" height="37.2667" fill="white" transform="translate(350 401)"/>
</clipPath>
<clipPath id="clip2_0_1736">
<rect width="121" height="37.1541" fill="white" transform="translate(0 64)"/>
</clipPath>
<clipPath id="clip3_0_1736">
<rect width="121" height="37.1541" fill="white" transform="translate(28 534)"/>
</clipPath>
</defs>
</svg>
