<svg width="34" height="34" viewBox="0 0 34 34" fill="none" xmlns="http://www.w3.org/2000/svg">
<path fill-rule="evenodd" clip-rule="evenodd" d="M17 0C20.6401 0 23.6313 2.77848 23.9684 6.33034C26.2479 7.12164 27.9028 9.24889 27.9959 11.7751L28 12V14.5011C32.7278 14.0074 35.1583 18.5465 33.458 21.9472C32.7994 23.2644 31.3975 24.0063 29.9901 24.1479C29.8849 25.9882 28.9503 27.6064 27.5543 28.6344C27.8523 29.1439 28 29.775 28 30.5L28.0043 30.5944C28.0447 31.0248 28.3766 31.3134 29.2425 31.5299C29.7783 31.6638 30.1041 32.2067 29.9701 32.7425C29.8362 33.2783 29.2932 33.6041 28.7574 33.4701C27.0186 33.0354 26 32.0168 26 30.5L25.9962 30.331C25.9779 29.9453 25.894 29.6986 25.7493 29.541C25.4426 29.6343 25.1254 29.7038 24.8 29.7471V29.8H24H11H10.8V29.7967C10.0196 29.7712 9.27698 29.5966 8.59954 29.3005C8.58299 29.3129 8.56598 29.3248 8.54851 29.3363L8.44721 29.3944C8.18121 29.5274 8.02925 29.7951 8.00382 30.331L8 30.5C8 32.0168 6.98141 33.0354 5.24253 33.4701C4.70674 33.6041 4.1638 33.2783 4.02985 32.7425C3.89591 32.2067 4.22167 31.6638 4.75746 31.5299C5.62339 31.3134 5.95531 31.0248 5.99571 30.5944L6 30.5C6 29.5073 6.27692 28.6907 6.83736 28.1212C5.78367 27.1059 5.10039 25.7089 5.01019 24.1527C3.33023 24.3093 1.41143 23.5589 0.605569 21.9472C-1.08715 18.5618 1.31395 14.0481 6 14.4947V12L6.00413 11.7751C6.09724 9.24889 7.75208 7.12164 10.0316 6.33034C10.3687 2.77848 13.3599 0 17 0ZM27.9983 23.9189C27.5623 23.7584 27.1708 23.5215 26.8564 23.2071C25.0352 21.3859 25.8817 18 29.0635 18C29.6158 18 30.0635 18.4477 30.0635 19C30.0635 19.5523 29.6158 20 29.0635 20L28.9191 20.0057C27.8488 20.0921 27.6201 21.1424 28.2706 21.7929C28.972 22.4943 31.0813 22.2284 31.6691 21.0528C32.7194 18.9521 31.2151 16.156 28.174 16.4939C25.6613 16.7731 24.3466 18.2192 24.0586 21.0995C24.0497 21.1877 24.0297 21.2721 24 21.3514V22V24V26H22H12H10V24V22V21.051C9.70209 18.203 8.38812 16.7715 5.88956 16.4939C2.84842 16.156 1.34408 18.9521 2.39442 21.0528C2.98223 22.2284 5.09148 22.4943 5.79289 21.7929C6.44342 21.1424 6.21473 20.0921 5.14438 20.0057L5 20C4.44771 20 4 19.5523 4 19C4 18.4477 4.44771 18 5 18C8.18181 18 9.02829 21.3859 7.2071 23.2071C7.14134 23.2729 7.07221 23.3352 7 23.3942V23.8C7 25.9422 8.68396 27.6911 10.8004 27.7951L11 27.8H24L24.1996 27.7951C26.2767 27.693 27.9373 26.0065 27.9983 23.9189ZM22.1948 20C22.6562 17.4831 23.9453 15.7745 26 14.9713V12C26 9.8578 24.316 8.10892 22.1996 8.0049L22 8V7C22 4.23858 19.7614 2 17 2C14.3112 2 12.1182 4.12231 12.0046 6.78311L12 7V8L11.8004 8.0049C9.68396 8.10892 8 9.8578 8 12V14.9468C10.0916 15.7395 11.4026 17.4573 11.8688 20H22.1948ZM22 24V22H12V24H22ZM17 14C17.5523 14 18 14.4477 18 15C18 15.5523 17.5523 16 17 16C16.4477 16 16 15.5523 16 15C16 14.4477 16.4477 14 17 14ZM18 7C18 6.44772 17.5523 6 17 6C16.4477 6 16 6.44772 16 7C16 7.55228 16.4477 8 17 8C17.5523 8 18 7.55228 18 7ZM13 10C13.5523 10 14 10.4477 14 11C14 11.5523 13.5523 12 13 12C12.4477 12 12 11.5523 12 11C12 10.4477 12.4477 10 13 10ZM22 11C22 10.4477 21.5523 10 21 10C20.4477 10 20 10.4477 20 11C20 11.5523 20.4477 12 21 12C21.5523 12 22 11.5523 22 11Z" fill="url(#paint0_linear_0_1854)"/>
<defs>
<linearGradient id="paint0_linear_0_1854" x1="-8.77905" y1="9.129" x2="9.35027" y2="42.8264" gradientUnits="userSpaceOnUse">
<stop stop-color="#AC6C44"/>
<stop offset="1" stop-color="#301103"/>
</linearGradient>
</defs>
</svg>
