<svg width="32" height="32" viewBox="0 0 32 32" fill="none" xmlns="http://www.w3.org/2000/svg">
<path fill-rule="evenodd" clip-rule="evenodd" d="M31.9677 13.4494C30.985 6.58623 25.5783 1.03849 18.5489 0.0321778C16.8237 -0.214509 15.2183 0.983926 14.9718 2.70986L13.8186 10.7815C13.322 11.2779 2.1047 22.494 1.52988 23.0688C-0.509961 25.1084 -0.509961 28.4271 1.52988 30.4666C3.57442 32.511 6.88372 32.5112 8.9285 30.4666C9.50344 29.8918 20.7208 18.6756 21.2173 18.1793L29.2898 17.0261C31.0146 16.7798 32.2149 15.1753 31.9677 13.4494ZM7.44878 28.9871C6.85584 29.5799 6.06763 29.9063 5.22916 29.9063C4.3907 29.9063 3.60248 29.5798 3.00955 28.9871C1.78573 27.7633 1.78573 25.7721 3.00955 24.5484L9.66827 17.8904L14.1074 22.3291L7.44878 28.9871ZM15.5873 20.8495L11.1482 16.4107L14.8051 12.7542L19.2443 17.1929L15.5873 20.8495ZM28.9938 14.9548L21.0939 16.0832L15.9149 10.9047L17.0435 3.0058C17.1271 2.42074 17.6772 2.02111 18.2524 2.10349C18.8089 2.18311 19.3551 2.2968 19.8887 2.44205L19.0493 5.18298C18.8801 5.73548 19.1908 6.32048 19.7434 6.48967C20.2963 6.65885 20.8811 6.34779 21.0502 5.79561L21.8613 3.14686C23.0896 3.69523 24.2245 4.41905 25.2332 5.28636L23.0488 7.4706C22.6402 7.87916 22.6402 8.5416 23.0488 8.95016C23.4573 9.35872 24.1199 9.35879 24.5285 8.95016L26.713 6.76592C27.5839 7.77867 28.3102 8.91854 28.8593 10.1523L26.2106 10.9575C25.6577 11.1256 25.3458 11.71 25.5139 12.2628C25.6819 12.8155 26.2663 13.1276 26.8193 12.9595L29.5618 12.1258C29.7049 12.6543 29.8173 13.195 29.8962 13.746C29.9793 14.3268 29.5734 14.872 28.9938 14.9548Z" fill="url(#paint0_linear_0_1894)"/>
<defs>
<linearGradient id="paint0_linear_0_1894" x1="-8.33789" y1="8.72018" x2="9.10247" y2="40.7202" gradientUnits="userSpaceOnUse">
<stop stop-color="#AC6C44"/>
<stop offset="1" stop-color="#301103"/>
</linearGradient>
</defs>
</svg>
