<svg width="37" height="34" viewBox="0 0 37 34" fill="none" xmlns="http://www.w3.org/2000/svg">
<path fill-rule="evenodd" clip-rule="evenodd" d="M35.0001 12.25C35.6473 12.25 36.1796 11.7581 36.2436 11.1278L36.2501 11V6.5C36.2501 3.12493 33.5748 0.374688 30.2292 0.254122L30.0001 0.25H26.5001C25.8097 0.25 25.2501 0.809644 25.2501 1.5C25.2501 2.14721 25.7419 2.67953 26.3723 2.74355L26.5001 2.75H30.0001C32.0043 2.75 33.6413 4.32236 33.7449 6.30084L33.7501 6.5V11C33.7501 11.6904 34.3097 12.25 35.0001 12.25ZM24.4979 13.9976C24.5162 14.5517 25.0971 15.1688 25.6645 15.5347C26.1953 15.877 27.9325 17.1481 27.9981 19.135C28.0441 20.5268 27.2822 21.8161 25.7338 22.9668C25.5064 23.1357 25.2414 23.2172 24.9786 23.2172C24.5895 23.2172 24.2052 23.0384 23.9559 22.7001C23.5383 22.1335 23.6573 21.3343 24.2216 20.9149C24.6925 20.565 25.4792 19.8795 25.4574 19.2196C25.439 18.6656 24.8583 18.0486 24.2909 17.6827C23.76 17.3404 22.0227 16.0692 21.9572 14.0823C21.9112 12.6904 22.6731 11.4011 24.2216 10.2505C24.786 9.83116 25.5819 9.9505 25.9994 10.5172C26.417 11.0838 26.2981 11.8831 25.7338 12.3024C25.2629 12.6523 24.4761 13.3377 24.4979 13.9976ZM19.1868 15.5347C18.6194 15.1688 18.0387 14.5517 18.0203 13.9976C17.9985 13.3377 18.7852 12.6523 19.2561 12.3024C19.8204 11.8831 19.9394 11.0838 19.5218 10.5172C19.1041 9.95067 18.3083 9.83133 17.7439 10.2505C16.1954 11.4011 15.4336 12.6904 15.4796 14.0823C15.5451 16.0692 17.2824 17.3404 17.8132 17.6827C18.3806 18.0486 18.9614 18.6656 18.9797 19.2196C19.0016 19.8795 18.2148 20.565 17.7439 20.9149C17.1796 21.3343 17.0607 22.1335 17.4783 22.7001C17.7276 23.0384 18.1119 23.2172 18.501 23.2172C18.7638 23.2172 19.0288 23.1357 19.2561 22.9668C20.8046 21.8161 21.5665 20.5268 21.5204 19.135C21.4549 17.1481 19.7177 15.877 19.1868 15.5347ZM12.7092 15.5347C12.1419 15.1688 11.5611 14.5517 11.5428 13.9977C11.5209 13.3378 12.3077 12.6524 12.7786 12.3025C13.3429 11.8831 13.4618 11.0839 13.0442 10.5173C12.6266 9.95075 11.8308 9.83141 11.2664 10.2506C9.71788 11.4012 8.95599 12.6905 9.00203 14.0823C9.06758 16.0693 10.8048 17.3405 11.3357 17.6828C11.9031 18.0487 12.4839 18.6658 12.5022 19.2199C12.524 19.8796 11.7373 20.5652 11.2664 20.9151C10.7021 21.3344 10.5831 22.1337 11.0007 22.7003C11.25 23.0386 11.6343 23.2174 12.0234 23.2174C12.2862 23.2174 12.5512 23.1359 12.7786 22.967C14.327 21.8163 15.0889 20.5271 15.043 19.1352C14.9774 17.1481 13.2401 15.877 12.7092 15.5347ZM35.0001 21.25C35.6473 21.25 36.1796 21.7419 36.2436 22.3722L36.2501 22.5V27C36.2501 30.3751 33.5748 33.1253 30.2292 33.2459L30.0001 33.25H26.5001C25.8097 33.25 25.2501 32.6904 25.2501 32C25.2501 31.3528 25.7419 30.8205 26.3723 30.7565L26.5001 30.75H30.0001C32.0043 30.75 33.6413 29.1776 33.7449 27.1992L33.7501 27V22.5C33.7501 21.8096 34.3097 21.25 35.0001 21.25ZM0.256515 22.3722C0.320527 21.7419 0.852852 21.25 1.50006 21.25C2.19042 21.25 2.75006 21.8096 2.75006 22.5V27L2.75526 27.1992C2.85879 29.1776 4.4958 30.75 6.50006 30.75H10.0001L10.1279 30.7565C10.7582 30.8205 11.2501 31.3528 11.2501 32C11.2501 32.6904 10.6904 33.25 10.0001 33.25H6.50006L6.27093 33.2459C2.9253 33.1253 0.250061 30.3751 0.250061 27V22.5L0.256515 22.3722ZM0.256515 11.1278C0.320527 11.7581 0.852852 12.25 1.50006 12.25C2.19042 12.25 2.75006 11.6904 2.75006 11V6.5L2.75526 6.30084C2.85879 4.32236 4.4958 2.75 6.50006 2.75H10.0001L10.1279 2.74355C10.7582 2.67953 11.2501 2.14721 11.2501 1.5C11.2501 0.809644 10.6904 0.25 10.0001 0.25H6.50006L6.27093 0.254122C2.9253 0.374688 0.250061 3.12493 0.250061 6.5V11L0.256515 11.1278Z" fill="url(#paint0_linear_0_1882)"/>
<defs>
<linearGradient id="paint0_linear_0_1882" x1="-9.13006" y1="9.24269" x2="7.98248" y2="43.4956" gradientUnits="userSpaceOnUse">
<stop stop-color="#AC6C44"/>
<stop offset="1" stop-color="#301103"/>
</linearGradient>
</defs>
</svg>
