<svg width="15" height="15" viewBox="0 0 15 15" fill="none" xmlns="http://www.w3.org/2000/svg">
<path fill-rule="evenodd" clip-rule="evenodd" d="M11.6749 8.60481L14.0671 10.9365C14.5617 11.4187 14.5617 12.2032 14.0671 12.6853L13.469 13.2683C12.4866 14.2257 10.4222 14.1644 9.04857 13.9058C7.79887 13.6706 5.39051 12.972 3.30222 10.9365C1.2097 8.89688 0.460247 6.53022 0.199743 5.301C-0.209005 3.37228 0.0192959 1.70408 0.795564 0.947464L1.39356 0.364534C1.88814 -0.117577 2.69303 -0.117632 3.1877 0.364534L5.57987 2.69626C6.07454 3.17842 6.07454 3.96291 5.57987 4.44505L4.98182 5.02798C4.48715 5.51015 4.48715 6.29461 4.98182 6.77677L7.48653 9.18584C7.98312 9.66988 8.78793 9.66993 9.28266 9.18777L9.88073 8.60481C10.3766 8.12146 11.1791 8.12154 11.6749 8.60481ZM2.58974 0.947464C2.4248 0.786724 2.15657 0.786752 1.99166 0.947464L1.6941 1.2375L4.68441 4.15216L4.98194 3.86215C5.14685 3.70141 5.14685 3.43993 4.98194 3.27919L2.58974 0.947464ZM9.20897 13.0964C8.05427 12.8791 5.82915 12.2337 3.90027 10.3536C1.96355 8.46578 1.26942 6.2732 1.02804 5.13424C0.708287 3.62557 0.841416 2.49151 1.15189 1.87483L4.11611 4.76414C3.57212 5.56413 3.66151 6.65567 4.3858 7.36163L6.89052 9.7707C7.61273 10.4747 8.73193 10.5623 9.55337 10.0317L12.52 12.9233C11.616 13.3701 10.2101 13.2848 9.20897 13.0964ZM13.1715 12.3924L13.469 12.1024C13.6339 11.9417 13.6339 11.6802 13.469 11.5195L11.0768 9.18777C10.9115 9.02667 10.644 9.02667 10.4788 9.18777L10.1812 9.47778L13.1715 12.3924ZM8.87217 0.00326354C8.66727 0.00326354 8.50116 0.161722 8.50116 0.357186C8.50116 0.552651 8.66727 0.711109 8.87217 0.711109C11.5316 0.711109 13.6953 2.77515 13.6953 5.31218C13.6953 5.50764 13.8614 5.6661 14.0663 5.6661C14.2712 5.6661 14.4373 5.50764 14.4373 5.31218C14.4373 2.38483 11.9408 0.00326354 8.87217 0.00326354ZM8.50116 2.18478C8.50116 2.00881 8.6527 1.86615 8.83962 1.86615C10.8925 1.86615 12.5627 3.43845 12.5627 5.37105C12.5627 5.54702 12.4112 5.68967 12.2243 5.68967C12.0373 5.68967 11.8858 5.54702 11.8858 5.37105C11.8858 3.78983 10.5193 2.5034 8.83962 2.5034C8.6527 2.5034 8.50116 2.36074 8.50116 2.18478ZM8.77454 3.72904C8.62356 3.72904 8.50116 3.8413 8.50116 3.97978C8.50116 4.11827 8.62356 4.23053 8.77454 4.23053C9.52826 4.23053 10.1414 4.79295 10.1414 5.48427C10.1414 5.62275 10.2638 5.73501 10.4148 5.73501C10.5658 5.73501 10.6882 5.62275 10.6882 5.48427C10.6882 4.51644 9.82973 3.72904 8.77454 3.72904ZM8.50116 5.65846C8.50116 5.62172 8.53614 5.59193 8.57929 5.59193C8.70853 5.59193 8.81367 5.68146 8.81366 5.79152C8.81366 5.82826 8.77869 5.85805 8.73554 5.85805C8.69239 5.85805 8.65741 5.82826 8.65741 5.79152C8.65741 5.75483 8.62237 5.72499 8.57929 5.72499C8.53614 5.72499 8.50116 5.6952 8.50116 5.65846Z" fill="#CE946B"/>
</svg>
