<svg width="26" height="26" viewBox="0 0 26 26" fill="none" xmlns="http://www.w3.org/2000/svg">
<path fill-rule="evenodd" clip-rule="evenodd" d="M8.125 0H17.875C22.3616 0 26 3.63837 26 8.125V17.875C26 22.3616 22.3616 26 17.875 26H8.125C3.63837 26 0 22.3616 0 17.875V8.125C0 3.63837 3.63837 0 8.125 0ZM17.875 23.5625C21.0112 23.5625 23.5625 21.0112 23.5625 17.875V8.125C23.5625 4.98875 21.0112 2.4375 17.875 2.4375H8.125C4.98875 2.4375 2.4375 4.98875 2.4375 8.125V17.875C2.4375 21.0112 4.98875 23.5625 8.125 23.5625H17.875ZM6.36735 13C6.36735 9.33712 9.33712 6.36735 13 6.36735C16.6629 6.36735 19.6327 9.33712 19.6327 13C19.6327 16.6629 16.6629 19.6327 13 19.6327C9.33712 19.6327 6.36735 16.6629 6.36735 13ZM8.85459 13C8.85459 15.2849 10.7151 17.1454 13 17.1454C15.2849 17.1454 17.1454 15.2849 17.1454 13C17.1454 10.7134 15.2849 8.85459 13 8.85459C10.7151 8.85459 8.85459 10.7134 8.85459 13ZM19.898 6.89796C20.3375 6.89796 20.6939 6.54161 20.6939 6.10204C20.6939 5.66247 20.3375 5.30612 19.898 5.30612C19.4584 5.30612 19.102 5.66247 19.102 6.10204C19.102 6.54161 19.4584 6.89796 19.898 6.89796Z" fill="white"/>
</svg>
