<svg width="27" height="27" viewBox="0 0 27 27" fill="none" xmlns="http://www.w3.org/2000/svg">
<path fill-rule="evenodd" clip-rule="evenodd" d="M22.9435 3.92167C20.4189 1.39408 17.0613 0.00148236 13.4844 0C6.11375 0 0.11513 5.99846 0.112165 13.3711C0.111177 15.7279 0.726851 18.0285 1.89709 20.0564L0 26.9856L7.08882 25.126C9.04208 26.1915 11.2411 26.753 13.479 26.7537H13.4846C20.8544 26.7537 26.8536 20.7547 26.8564 13.3818C26.8579 9.80862 25.4683 6.4491 22.9435 3.92167ZM13.4844 24.4954H13.4798C11.4855 24.4945 9.52961 23.9586 7.82292 22.9461L7.41724 22.7052L3.21063 23.8087L4.33344 19.7073L4.06908 19.2868C2.95649 17.5172 2.36898 15.4719 2.36997 13.3719C2.37227 7.24397 7.35828 2.25846 13.4888 2.25846C16.4575 2.25945 19.2481 3.41701 21.3465 5.51785C23.4449 7.61868 24.5998 10.4111 24.5988 13.381C24.5962 19.5094 19.6105 24.4954 13.4844 24.4954ZM17.2977 15.0842C17.604 15.1959 19.2468 16.0039 19.5808 16.1713C19.6464 16.2041 19.7077 16.2337 19.7645 16.2612C19.997 16.3735 20.1541 16.4495 20.2211 16.5614C20.3047 16.7009 20.3047 17.3698 20.0264 18.1504C19.7477 18.9307 18.4131 19.6431 17.771 19.7391C17.1952 19.8251 16.4671 19.861 15.6666 19.6067C15.1812 19.4527 14.5589 19.2473 13.7618 18.9028C10.6296 17.5504 8.51274 14.5146 8.11259 13.9407C8.08455 13.9005 8.06494 13.8724 8.054 13.8578L8.05101 13.8538C7.87322 13.6164 6.68973 12.0365 6.68973 10.4014C6.68973 8.86242 7.4455 8.05585 7.79348 7.68448C7.81736 7.65899 7.83933 7.63555 7.85899 7.61407C8.16534 7.27939 8.52737 7.19588 8.75005 7.19588C8.9729 7.19588 9.19575 7.19786 9.39043 7.20757C9.4144 7.20877 9.43933 7.20862 9.46509 7.20847C9.6599 7.20732 9.90259 7.2059 10.1423 7.78108C10.2338 8.00111 10.3675 8.32658 10.5087 8.67031C10.7969 9.37203 11.1163 10.1499 11.1722 10.2621C11.2559 10.4292 11.3117 10.6244 11.2002 10.8474C11.0889 11.0703 10.7267 11.5412 10.365 11.9903C10.3495 12.0095 10.3336 12.0285 10.3176 12.0474C10.1807 12.2101 10.0441 12.3725 10.2184 12.6722C10.4134 13.0066 11.084 14.1007 12.0771 14.9867C13.1452 15.9393 14.0734 16.3419 14.5437 16.5459C14.6354 16.5856 14.7096 16.6178 14.7642 16.6451C15.0984 16.8125 15.293 16.7845 15.488 16.5614C15.6831 16.3386 16.3233 15.5859 16.5461 15.2515C16.7686 14.9172 16.9917 14.9727 17.2977 15.0842Z" fill="white"/>
</svg>
